<svg width="146" height="39" viewBox="0 0 146 39" fill="none" xmlns="http://www.w3.org/2000/svg">
<path d="M23.1695 17.7191C23.1308 13.5292 26.6881 11.4908 26.8508 11.3959C24.8361 8.53203 21.7135 8.14073 20.6161 8.10953C17.9935 7.84043 15.4495 9.63963 14.1135 9.63963C12.7508 9.63963 10.6935 8.13553 8.47615 8.17973C5.62281 8.22263 2.95348 9.83333 1.48948 12.3345C-1.53185 17.4344 0.721482 24.9289 3.61615 29.0512C5.06415 31.0701 6.75615 33.3243 8.97082 33.245C11.1375 33.1579 11.9468 31.8982 14.5615 31.8982C17.1521 31.8982 17.9121 33.245 20.1708 33.1943C22.4961 33.1579 23.9601 31.1663 25.3575 29.1292C27.0308 26.8152 27.7028 24.5363 27.7295 24.4193C27.6748 24.4011 23.2135 22.741 23.1695 17.7191Z" fill="#5657F7"/>
<path d="M18.9028 5.39773C20.0681 3.97683 20.8655 2.04373 20.6441 0.0820312C18.9575 0.154831 16.8481 1.21953 15.6335 2.60923C14.5588 3.83383 13.5988 5.84103 13.8468 7.72863C15.7415 7.86643 17.6868 6.79653 18.9028 5.39773Z" fill="#5657F7"/>
<path d="M48.3997 5.01131C48.3997 6.54141 47.9291 7.69321 46.989 8.46671C46.1184 9.18042 44.881 9.53792 43.2784 9.53792C42.4837 9.53792 41.8037 9.50412 41.2344 9.43651V1.07621C41.977 0.959214 42.777 0.899414 43.641 0.899414C45.1677 0.899414 46.3184 1.22311 47.0944 1.87051C47.9637 2.60241 48.3997 3.64891 48.3997 5.01131ZM46.9264 5.04901C46.9264 4.05711 46.657 3.29661 46.1184 2.76621C45.5797 2.23711 44.793 1.97191 43.757 1.97191C43.317 1.97191 42.9424 2.00051 42.6317 2.06031V8.41602C42.8037 8.44202 43.1184 8.45371 43.5757 8.45371C44.645 8.45371 45.4704 8.16381 46.0517 7.58401C46.6331 7.00421 46.9264 6.15921 46.9264 5.04901Z" fill="#5657F7"/>
<path d="M56.2126 6.34816C56.2126 7.29066 55.9366 8.06286 55.3846 8.66866C54.806 9.29136 54.0393 9.60206 53.082 9.60206C52.1593 9.60206 51.4246 9.30436 50.8766 8.70636C50.33 8.10966 50.0566 7.35696 50.0566 6.44956C50.0566 5.50056 50.338 4.72186 50.9033 4.11736C51.4686 3.51286 52.2286 3.20996 53.186 3.20996C54.1086 3.20996 54.85 3.50766 55.4113 4.10436C55.9446 4.68416 56.2126 5.43296 56.2126 6.34816ZM54.7633 6.39236C54.7633 5.82686 54.638 5.34196 54.3886 4.93766C54.0953 4.44886 53.678 4.20446 53.1353 4.20446C52.574 4.20446 52.1473 4.44886 51.854 4.93766C51.6033 5.34196 51.4793 5.83466 51.4793 6.41706C51.4793 6.98256 51.6046 7.46746 51.854 7.87176C52.1566 8.36056 52.578 8.60496 53.122 8.60496C53.6553 8.60496 54.074 8.35666 54.3753 7.85876C54.634 7.44666 54.7633 6.95786 54.7633 6.39236Z" fill="#5657F7"/>
<path d="M66.6867 3.33398L64.7201 9.46218H63.4401L62.6254 6.80108C62.4187 6.13678 62.2507 5.47638 62.1201 4.82118H62.0947C61.9734 5.49458 61.8054 6.15368 61.5894 6.80108L60.7241 9.46218H59.4294L57.5801 3.33398H59.0161L59.7267 6.24728C59.8987 6.93628 60.0401 7.59278 60.1534 8.21418H60.1787C60.2827 7.70198 60.4547 7.04939 60.6974 6.26029L61.5894 3.33528H62.7281L63.5827 6.19788C63.7894 6.89598 63.9574 7.56808 64.0867 8.21548H64.1254C64.2201 7.58498 64.3627 6.91288 64.5521 6.19788L65.3147 3.33528H66.6867V3.33398Z" fill="#5657F7"/>
<path d="M73.9312 9.46296H72.5339V5.95296C72.5339 4.87136 72.1125 4.33055 71.2672 4.33055C70.8525 4.33055 70.5179 4.47876 70.2579 4.77646C70.0005 5.07416 69.8699 5.42516 69.8699 5.82686V9.46166H68.4725V5.08586C68.4725 4.54766 68.4552 3.96396 68.4219 3.33215H69.6499L69.7152 4.29026H69.7539C69.9165 3.99256 70.1592 3.74686 70.4779 3.55056C70.8565 3.32176 71.2805 3.20605 71.7445 3.20605C72.3312 3.20605 72.8192 3.39065 73.2072 3.76115C73.6899 4.21486 73.9312 4.89216 73.9312 5.79176V9.46296Z" fill="#5657F7"/>
<path d="M77.7847 9.46256H76.3887V0.522461H77.7847V9.46256Z" fill="#5657F7"/>
<path d="M86.0095 6.34816C86.0095 7.29066 85.7335 8.06286 85.1815 8.66866C84.6029 9.29136 83.8349 9.60206 82.8789 9.60206C81.9549 9.60206 81.2202 9.30436 80.6735 8.70636C80.1268 8.10966 79.8535 7.35696 79.8535 6.44956C79.8535 5.50056 80.1349 4.72186 80.7002 4.11736C81.2655 3.51286 82.0255 3.20996 82.9815 3.20996C83.9055 3.20996 84.6455 3.50766 85.2082 4.10436C85.7415 4.68416 86.0095 5.43296 86.0095 6.34816ZM84.5588 6.39236C84.5588 5.82686 84.4335 5.34196 84.1842 4.93766C83.8922 4.44886 83.4735 4.20446 82.9322 4.20446C82.3695 4.20446 81.9428 4.44886 81.6508 4.93766C81.4002 5.34196 81.2762 5.83466 81.2762 6.41706C81.2762 6.98256 81.4015 7.46746 81.6508 7.87176C81.9535 8.36056 82.3749 8.60496 82.9189 8.60496C83.4522 8.60496 83.8695 8.35666 84.1708 7.85876C84.4308 7.44666 84.5588 6.95786 84.5588 6.39236Z" fill="#5657F7"/>
<path d="M92.7733 9.46296H91.5186L91.4146 8.75706H91.3759C90.9466 9.31996 90.3346 9.60206 89.5399 9.60206C88.9466 9.60206 88.4666 9.41616 88.1053 9.04696C87.7773 8.71156 87.6133 8.29426 87.6133 7.79896C87.6133 7.05016 87.9333 6.47946 88.5773 6.08426C89.2199 5.68906 90.124 5.49536 91.2879 5.50446V5.39006C91.2879 4.58276 90.8533 4.17976 89.9826 4.17976C89.3626 4.17976 88.816 4.33186 88.344 4.63346L88.0599 3.73906C88.6439 3.38676 89.3653 3.20996 90.2159 3.20996C91.8586 3.20996 92.6826 4.05496 92.6826 5.74496V8.00176C92.6826 8.61406 92.7133 9.10156 92.7733 9.46296ZM91.3226 7.35696V6.41186C89.7813 6.38586 89.0106 6.79796 89.0106 7.64686C89.0106 7.96666 89.0986 8.20586 89.2786 8.36576C89.4586 8.52566 89.6879 8.60496 89.9613 8.60496C90.2679 8.60496 90.5546 8.51006 90.8159 8.32156C91.0786 8.13176 91.2399 7.89126 91.2999 7.59616C91.3146 7.52986 91.3226 7.44926 91.3226 7.35696Z" fill="#5657F7"/>
<path d="M100.713 9.46256H99.4729L99.4075 8.47846H99.3689C98.9729 9.22726 98.2982 9.60166 97.3502 9.60166C96.5929 9.60166 95.9622 9.31176 95.4622 8.73196C94.9622 8.15216 94.7129 7.39946 94.7129 6.47516C94.7129 5.48326 94.9836 4.67986 95.5276 4.06626C96.0542 3.49426 96.6995 3.20826 97.4675 3.20826C98.3115 3.20826 98.9022 3.48516 99.2382 4.04026H99.2649V0.522461H100.664V7.81156C100.664 8.40826 100.68 8.95816 100.713 9.46256ZM99.2649 6.87816V5.85636C99.2649 5.67956 99.2515 5.53656 99.2262 5.42736C99.1475 5.09976 98.9782 4.82416 98.7209 4.60186C98.4609 4.37956 98.1475 4.26776 97.7862 4.26776C97.2649 4.26776 96.8569 4.46926 96.5569 4.87356C96.2595 5.27786 96.1089 5.79396 96.1089 6.42446C96.1089 7.03026 96.2515 7.52166 96.5382 7.89996C96.8409 8.30296 97.2489 8.50446 97.7595 8.50446C98.2182 8.50446 98.5849 8.33676 98.8636 8.00006C99.1329 7.68936 99.2649 7.31496 99.2649 6.87816Z" fill="#5657F7"/>
<path d="M112.664 6.34816C112.664 7.29066 112.388 8.06286 111.836 8.66866C111.257 9.29136 110.492 9.60206 109.533 9.60206C108.612 9.60206 107.877 9.30436 107.328 8.70636C106.781 8.10966 106.508 7.35696 106.508 6.44956C106.508 5.50056 106.789 4.72186 107.354 4.11736C107.92 3.51286 108.68 3.20996 109.638 3.20996C110.56 3.20996 111.302 3.50766 111.862 4.10436C112.396 4.68416 112.664 5.43296 112.664 6.34816ZM111.216 6.39236C111.216 5.82686 111.09 5.34196 110.841 4.93766C110.546 4.44886 110.13 4.20446 109.586 4.20446C109.026 4.20446 108.6 4.44886 108.305 4.93766C108.054 5.34196 107.93 5.83466 107.93 6.41706C107.93 6.98256 108.056 7.46746 108.305 7.87176C108.608 8.36056 109.029 8.60496 109.573 8.60496C110.106 8.60496 110.526 8.35666 110.828 7.85876C111.085 7.44666 111.216 6.95786 111.216 6.39236Z" fill="#5657F7"/>
<path d="M120.178 9.46296H118.782V5.95296C118.782 4.87136 118.361 4.33055 117.514 4.33055C117.099 4.33055 116.765 4.47876 116.506 4.77646C116.247 5.07416 116.118 5.42516 116.118 5.82686V9.46166H114.719V5.08586C114.719 4.54766 114.703 3.96396 114.67 3.33215H115.897L115.962 4.29026H116.001C116.165 3.99256 116.407 3.74686 116.725 3.55056C117.105 3.32176 117.527 3.20605 117.993 3.20605C118.578 3.20605 119.066 3.39065 119.454 3.76115C119.938 4.21486 120.178 4.89216 120.178 5.79176V9.46296Z" fill="#5657F7"/>
<path d="M129.582 4.35529H128.043V7.33229C128.043 8.08889 128.317 8.46719 128.858 8.46719C129.109 8.46719 129.317 8.44639 129.481 8.40349L129.517 9.43699C129.241 9.53839 128.878 9.58909 128.431 9.58909C127.879 9.58909 127.45 9.42529 127.139 9.09769C126.827 8.77009 126.673 8.21889 126.673 7.44539V4.35529H125.754V3.33479H126.673V2.21159L128.042 1.80859V3.33349H129.581V4.35529H129.582Z" fill="#5657F7"/>
<path d="M136.978 9.46256H135.58V5.97856C135.58 4.88006 135.158 4.33016 134.314 4.33016C133.666 4.33016 133.224 4.64866 132.981 5.28566C132.94 5.41956 132.916 5.58336 132.916 5.77576V9.46126H131.52V0.522461H132.916V4.21576H132.942C133.382 3.54366 134.013 3.20826 134.83 3.20826C135.409 3.20826 135.888 3.39286 136.268 3.76336C136.741 4.22486 136.978 4.91126 136.978 5.81866V9.46256Z" fill="#5657F7"/>
<path d="M144.609 6.10894C144.609 6.35334 144.591 6.55874 144.557 6.72644H140.367C140.385 7.33224 140.585 7.79374 140.973 8.11354C141.328 8.39954 141.785 8.54254 142.345 8.54254C142.965 8.54254 143.531 8.44634 144.04 8.25264L144.259 9.19904C143.663 9.45124 142.961 9.57734 142.149 9.57734C141.176 9.57734 140.409 9.29784 139.855 8.73884C139.297 8.17984 139.021 7.42974 139.021 6.48854C139.021 5.56424 139.279 4.79464 139.797 4.18104C140.339 3.52584 141.071 3.19824 141.995 3.19824C142.899 3.19824 143.585 3.52584 144.049 4.18104C144.424 4.70104 144.609 5.34454 144.609 6.10894ZM143.276 5.75664C143.287 5.35234 143.195 5.00394 143.005 4.71014C142.763 4.33184 142.393 4.14204 141.893 4.14204C141.437 4.14204 141.065 4.32664 140.781 4.69714C140.549 4.99224 140.412 5.34454 140.367 5.75664H143.276Z" fill="#5657F7"/>
<path d="M54.5269 32.9557H51.4989L49.8402 27.874H44.0749L42.4949 32.9557H39.5469L45.2589 15.6553H48.7869L54.5269 32.9557ZM49.3402 25.742L47.8402 21.2245C47.6815 20.763 47.3842 19.6762 46.9455 17.9654H46.8922C46.7175 18.7012 46.4362 19.788 46.0495 21.2245L44.5762 25.742H49.3402Z" fill="#5657F7"/>
<path d="M69.2159 26.5647C69.2159 28.6863 68.6279 30.3633 67.4519 31.5944C66.3985 32.6903 65.0905 33.2376 63.5292 33.2376C61.8439 33.2376 60.6332 32.6474 59.8959 31.467H59.8425V38.0385H56.9999V24.5874C56.9999 23.2536 56.9639 21.8847 56.8945 20.4807H59.3945L59.5532 22.458H59.6065C60.5545 20.9682 61.9932 20.2246 63.9239 20.2246C65.4332 20.2246 66.6932 20.8057 67.7012 21.9692C68.7119 23.134 69.2159 24.6654 69.2159 26.5647ZM66.3199 26.6661C66.3199 25.4519 66.0399 24.4509 65.4772 23.6631C64.8625 22.8415 64.0372 22.4307 63.0025 22.4307C62.3012 22.4307 61.6639 22.6595 61.0945 23.1106C60.5239 23.5656 60.1505 24.1597 59.9759 24.8955C59.8879 25.2387 59.8439 25.5195 59.8439 25.7405V27.8205C59.8439 28.7279 60.1292 29.4936 60.6999 30.1189C61.2705 30.7442 62.0119 31.0562 62.9239 31.0562C63.9945 31.0562 64.8279 30.6532 65.4239 29.8498C66.0212 29.0451 66.3199 27.9843 66.3199 26.6661Z" fill="#5657F7"/>
<path d="M83.9313 26.5647C83.9313 28.6863 83.3433 30.3633 82.166 31.5944C81.114 32.6903 79.806 33.2376 78.2447 33.2376C76.5593 33.2376 75.3487 32.6474 74.6127 31.467H74.5593V38.0385H71.7167V24.5874C71.7167 23.2536 71.6807 21.8847 71.6113 20.4807H74.1113L74.27 22.458H74.3233C75.27 20.9682 76.7087 20.2246 78.6407 20.2246C80.1487 20.2246 81.4087 20.8057 82.4193 21.9692C83.426 23.134 83.9313 24.6654 83.9313 26.5647ZM81.0353 26.6661C81.0353 25.4519 80.754 24.4509 80.1913 23.6631C79.5767 22.8415 78.754 22.4307 77.718 22.4307C77.0153 22.4307 76.3793 22.6595 75.8087 23.1106C75.238 23.5656 74.866 24.1597 74.6913 24.8955C74.6047 25.2387 74.5593 25.5195 74.5593 25.7405V27.8205C74.5593 28.7279 74.8447 29.4936 75.4127 30.1189C75.9833 30.7429 76.7247 31.0562 77.6393 31.0562C78.71 31.0562 79.5433 30.6532 80.1393 29.8498C80.7367 29.0451 81.0353 27.9843 81.0353 26.6661Z" fill="#5657F7"/>
<path d="M100.385 28.1037C100.385 29.5753 99.861 30.7726 98.809 31.6969C97.653 32.707 96.0436 33.2114 93.9756 33.2114C92.0663 33.2114 90.5356 32.8526 89.377 32.1337L90.0356 29.8236C91.2836 30.5594 92.653 30.9286 94.145 30.9286C95.2156 30.9286 96.049 30.692 96.6476 30.2214C97.2436 29.7508 97.541 29.119 97.541 28.3312C97.541 27.6292 97.2956 27.0377 96.8036 26.558C96.3143 26.0783 95.497 25.6324 94.3556 25.2203C91.249 24.0906 89.697 22.4357 89.697 20.2595C89.697 18.8373 90.241 17.6712 91.3303 16.7638C92.4156 15.8551 93.8636 15.4014 95.6743 15.4014C97.289 15.4014 98.6303 15.6757 99.701 16.223L98.9903 18.4824C97.9903 17.952 96.8596 17.6868 95.5943 17.6868C94.5943 17.6868 93.813 17.9273 93.253 18.4057C92.7796 18.8334 92.5423 19.3547 92.5423 19.9722C92.5423 20.656 92.813 21.2215 93.357 21.6661C93.8303 22.0769 94.6903 22.5215 95.9383 23.0012C97.465 23.6005 98.5863 24.3012 99.3076 25.1046C100.026 25.9054 100.385 26.9077 100.385 28.1037Z" fill="#5657F7"/>
<path d="M109.784 22.5604H106.651V28.6171C106.651 30.1576 107.203 30.9272 108.31 30.9272C108.818 30.9272 109.239 30.8843 109.572 30.7985L109.651 32.9032C109.091 33.1073 108.354 33.21 107.44 33.21C106.318 33.21 105.44 32.8759 104.807 32.209C104.176 31.5408 103.859 30.4202 103.859 28.8459V22.5578H101.992V20.4778H103.859V18.1937L106.651 17.3721V20.4778H109.784V22.5604Z" fill="#5657F7"/>
<path d="M123.921 26.6151C123.921 28.5326 123.358 30.1069 122.235 31.338C121.058 32.6055 119.495 33.2373 117.547 33.2373C115.67 33.2373 114.175 32.6302 113.061 31.416C111.946 30.2018 111.389 28.6691 111.389 26.8218C111.389 24.8887 111.962 23.3053 113.113 22.0742C114.261 20.8418 115.81 20.2256 117.758 20.2256C119.635 20.2256 121.146 20.8327 122.286 22.0482C123.377 23.2273 123.921 24.7496 123.921 26.6151ZM120.971 26.7048C120.971 25.5543 120.719 24.5676 120.209 23.7447C119.613 22.7489 118.761 22.2523 117.657 22.2523C116.514 22.2523 115.646 22.7502 115.05 23.7447C114.539 24.5689 114.287 25.5712 114.287 26.7568C114.287 27.9073 114.539 28.894 115.05 29.7156C115.665 30.7114 116.523 31.208 117.631 31.208C118.717 31.208 119.569 30.701 120.183 29.6896C120.707 28.8511 120.971 27.854 120.971 26.7048Z" fill="#5657F7"/>
<path d="M133.162 22.9182C132.88 22.8675 132.58 22.8415 132.266 22.8415C131.266 22.8415 130.492 23.2094 129.948 23.9465C129.475 24.5965 129.238 25.4181 129.238 26.41V32.9555H126.396L126.423 24.4093C126.423 22.9715 126.387 21.6624 126.316 20.482H128.792L128.896 22.8688H128.975C129.275 22.0485 129.748 21.3881 130.396 20.8928C131.03 20.4469 131.714 20.2246 132.451 20.2246C132.714 20.2246 132.951 20.2428 133.162 20.2753V22.9182Z" fill="#5657F7"/>
<path d="M145.875 26.1279C145.875 26.6245 145.841 27.0431 145.771 27.385H137.243C137.276 28.6174 137.688 29.5599 138.48 30.2099C139.199 30.791 140.128 31.0822 141.269 31.0822C142.532 31.0822 143.684 30.8859 144.72 30.492L145.165 32.416C143.955 32.9308 142.525 33.1869 140.876 33.1869C138.892 33.1869 137.335 32.6175 136.201 31.48C135.071 30.3425 134.504 28.815 134.504 26.8988C134.504 25.0177 135.031 23.4512 136.085 22.2019C137.189 20.8681 138.681 20.2012 140.559 20.2012C142.403 20.2012 143.799 20.8681 144.747 22.2019C145.497 23.2614 145.875 24.5718 145.875 26.1279ZM143.164 25.409C143.183 24.5874 142.997 23.8776 142.612 23.2783C142.12 22.5074 141.364 22.1226 140.347 22.1226C139.417 22.1226 138.661 22.4983 138.084 23.2523C137.611 23.8516 137.329 24.5705 137.243 25.4077H143.164V25.409Z" fill="#5657F7"/>
</svg>
