<svg width="101" height="100" viewBox="0 0 101 100" fill="none" xmlns="http://www.w3.org/2000/svg">
<path fill-rule="evenodd" clip-rule="evenodd" d="M97.7186 89.6253L97.7519 89.6215C96.4909 87.2793 96.9635 84.9417 97.4363 82.6028C97.5213 82.1826 97.6063 81.7623 97.6812 81.342C97.937 80.9766 98.0765 80.5321 98.0788 80.0746C98.7495 73.9238 98.8729 67.7252 98.9962 61.537C99.0148 60.6035 99.0334 59.6703 99.0539 58.7375C99.2483 49.989 98.9743 41.2438 98.6326 32.4954C98.3999 26.586 98.07 20.6988 97.3365 14.8369C97.2232 13.8943 97.3494 12.9361 97.7018 12.0644C98.5622 9.80944 99.3996 7.54314 100.237 5.27699C100.391 4.85884 100.546 4.44069 100.7 4.02262C101.042 3.10057 101.163 2.20069 100.677 1.29131C100.035 0.0872589 98.83 -0.324654 97.3837 0.267869C95.5183 1.02872 93.6671 1.83543 91.8163 2.64199C91.139 2.93715 90.4618 3.23229 89.7839 3.52516C89.0605 3.89498 88.2563 4.043 87.4597 3.95291C85.3975 3.60942 83.3272 3.40046 81.2555 3.19136C80.8238 3.14778 80.3919 3.10419 79.9601 3.05938C73.6092 2.40665 67.2378 2.24189 60.8752 2.10881C51.234 1.90919 41.5899 2.09613 31.9488 2.5429C30.3391 2.61736 28.7305 2.71553 27.122 2.8137C24.9659 2.94529 22.81 3.07686 20.6522 3.15127C20.1867 3.11576 19.7254 3.26577 19.3561 3.57269C19.0858 3.7418 18.788 3.76057 18.4911 3.77928C18.3319 3.78931 18.173 3.79932 18.0188 3.83251C17.413 3.96422 16.797 3.99159 16.1815 4.01893C15.54 4.04743 14.899 4.07591 14.2705 4.2225C14.1343 4.24257 13.9887 4.28023 13.8328 4.33671C12.684 4.55851 11.6206 4.27968 10.5543 3.79806C8.85273 3.02665 7.13514 2.29491 5.41807 1.5634L5.41804 1.56339C4.80765 1.30335 4.19733 1.04333 3.58781 0.781577C1.74972 -0.00739632 1.26369 0.113009 0.00883704 1.65293L0 3.27841C0.319523 4.86027 0.78835 6.40292 1.39919 7.88234C1.68859 8.63859 1.97043 9.39935 2.25233 10.1603L2.25237 10.1604L2.25238 10.1604L2.2524 10.1605C2.49844 10.8246 2.74453 11.4889 2.99574 12.1504C3.35678 13.0691 3.4592 14.0816 3.2903 15.0623C1.99992 22.7917 1.85223 30.6192 1.70491 38.4267L1.69081 39.1719C1.50621 48.9945 1.64171 58.8181 2.09731 68.6428L2.13382 69.3867C2.37989 74.4072 2.62549 79.418 3.24023 84.4001C3.44845 85.9616 3.26015 87.5546 2.69528 89.0104C2.47804 89.5872 2.25152 90.1609 2.0249 90.7348L2.02484 90.7349C1.22207 92.7679 0.418023 94.8041 0.0206197 96.9983V98.6175C1.27547 100.161 1.75856 100.278 3.60549 99.4888C4.21967 99.2263 4.83683 98.9713 5.45385 98.7164C6.86986 98.1315 8.2851 97.5469 9.66176 96.8716C11.246 96.0932 13.0109 95.8437 14.7283 96.1555C22.876 97.4071 31.1003 97.6162 39.3128 97.781C50.7341 97.9964 62.1397 97.8053 73.5296 97.2074C77.2912 97.0047 81.0587 96.7765 84.8055 96.2569C85.0656 96.2211 85.3253 96.18 85.5851 96.1389C87.0763 95.903 88.5674 95.6671 90.1077 96.447C91.8141 97.3105 93.5812 98.0388 95.3485 98.7672C96.1623 99.1026 96.9761 99.438 97.7841 99.7867C98.6325 100.161 99.4366 100.059 100.105 99.3589C100.396 99.0891 100.6 98.7285 100.691 98.3276C100.782 97.9266 100.754 97.5051 100.612 97.1219C100.365 96.4532 100.127 95.7809 99.889 95.1088L99.8888 95.1082L99.8886 95.1076L99.8884 95.107L99.8882 95.1065L99.888 95.1059L99.8878 95.1053L99.8876 95.1048L99.8873 95.1042L99.8871 95.1036L99.8869 95.103L99.8867 95.1025L99.8865 95.1019L99.8863 95.1013L99.8861 95.1008L99.8859 95.1002L99.8857 95.0996L99.8855 95.099L99.8853 95.0985C99.2322 93.2547 98.5795 91.4119 97.7517 89.6472C97.7407 89.6398 97.7297 89.6325 97.7186 89.6253Z" fill="white"/>
<path d="M51.0766 80C32.9233 80 20.2439 68.832 20.2439 52.8385C20.2147 49.8605 20.76 46.905 21.8498 44.1359C20.0675 43.1393 18.5364 41.7445 17.3745 40.0588C16.2125 38.3731 15.4508 36.4416 15.1478 34.413C14.8449 32.3845 15.0089 30.313 15.6272 28.3583C16.2455 26.4036 17.3017 24.6177 18.7142 23.1383C20.1267 21.6589 21.858 20.5255 23.7747 19.8253C25.6913 19.1251 27.7421 18.8769 29.7691 19.0998C31.7961 19.3227 33.7452 20.0107 35.4663 21.1108C37.1873 22.2109 38.6343 23.6938 39.6959 25.4453C46.9544 22.5402 55.0398 22.5226 62.3107 25.3961C63.3734 23.6538 64.818 22.1789 66.5342 21.0843C68.2503 19.9897 70.1925 19.3043 72.2123 19.0806C74.2321 18.8568 76.276 19.1006 78.1877 19.7933C80.0995 20.4859 81.8286 21.6092 83.2427 23.0771C84.6568 24.545 85.7186 26.3188 86.3469 28.2628C86.9752 30.2069 87.1533 32.2697 86.8677 34.2935C86.582 36.3174 85.8402 38.2488 84.6988 39.9401C83.5575 41.6313 82.0469 43.0377 80.2825 44.0516C81.3921 46.8452 81.9472 49.8303 81.9163 52.8385C81.9163 68.832 69.2369 80 51.0766 80ZM28.3221 23.2327C26.169 23.23 24.0841 23.9927 22.4356 25.3862C20.7872 26.7797 19.6811 28.7143 19.3128 30.8484C18.9445 32.9826 19.3375 35.179 20.4226 37.0499C21.5077 38.9208 23.215 40.3459 25.2431 41.0735C25.5119 41.1702 25.7582 41.3212 25.9669 41.5171C26.1756 41.7131 26.3423 41.9499 26.4567 42.213C26.5711 42.4761 26.6309 42.76 26.6323 43.0472C26.6337 43.3344 26.5767 43.6188 26.4649 43.883C25.0685 47.1913 24.4331 49.3828 24.4331 52.8526C24.4331 64.2735 32.6719 75.7997 51.0766 75.7997C69.4812 75.7997 77.727 64.2594 77.727 52.8385C77.727 49.3266 77.0707 47.1421 75.6813 43.8198C75.5709 43.5589 75.514 43.2781 75.514 42.9945C75.514 42.7109 75.5709 42.4302 75.6813 42.1692C75.7921 41.9097 75.9537 41.6752 76.1564 41.4797C76.3591 41.2842 76.5988 41.1317 76.8613 41.0313C78.2812 40.496 79.5465 39.6136 80.543 38.4638C81.5395 37.3139 82.236 35.9326 82.5696 34.4445C82.9032 32.9564 82.8635 31.4081 82.454 29.9392C82.0446 28.4704 81.2783 27.1271 80.2242 26.0304C79.1701 24.9338 77.8613 24.1182 76.4157 23.6573C74.9702 23.1963 73.4334 23.1044 71.9437 23.3899C70.4541 23.6753 69.0585 24.3292 67.8827 25.2925C66.7068 26.2558 65.7878 27.4983 65.2082 28.9081C65.0997 29.1715 64.9392 29.4101 64.7364 29.6093C64.5336 29.8085 64.2927 29.9642 64.0283 30.067C63.7651 30.1693 63.4841 30.217 63.2022 30.2074C62.9202 30.1977 62.6431 30.1309 62.3875 30.0108C58.8243 28.3247 54.9331 27.4564 50.9954 27.4685C47.0577 27.4807 43.1719 28.373 39.6191 30.081C39.3621 30.2036 39.0831 30.2723 38.7989 30.2828C38.5147 30.2934 38.2314 30.2456 37.9662 30.1424C37.701 30.0392 37.4594 29.8828 37.2562 29.6827C37.053 29.4825 36.8925 29.2429 36.7844 28.9783C36.1046 27.2806 34.9355 25.8263 33.4275 24.8025C31.9195 23.7786 30.1415 23.2319 28.3221 23.2327Z" fill="#2D2F54"/>
<path d="M77.4764 26.6746C76.3187 25.7924 74.9137 25.3008 73.4617 25.2698C69.0072 25.2698 66.3051 30.3059 66.1934 30.5237C66.0518 30.7919 66.0004 31.0992 66.047 31.3993C66.0936 31.6994 66.2356 31.9763 66.4518 32.1883L74.1809 39.6899C74.4176 39.9221 74.7286 40.0623 75.0585 40.0854C75.3884 40.1086 75.7157 40.0132 75.9822 39.8163C78.9007 37.6529 80.6323 34.7731 80.6113 32.09C80.5625 30.629 80.0179 28.4938 77.4764 26.6746Z" fill="#2D2F54"/>
<path d="M28.5459 25.6138C27.0727 25.6138 24.9222 26.1616 23.0999 28.7535C22.5079 29.5088 22.091 30.3876 21.8796 31.3257C21.6683 32.2638 21.6677 33.2376 21.8781 34.1759C22.7438 37.8284 26.7655 39.9987 26.954 40.0901C27.1533 40.1985 27.3768 40.2541 27.6033 40.2516C27.7909 40.2518 27.9767 40.2139 28.1494 40.1403C28.3221 40.0667 28.4784 39.9588 28.6088 39.8231L36.0446 32.0968C36.2744 31.8578 36.4125 31.5445 36.4342 31.2126C36.4559 30.8808 36.36 30.552 36.1633 30.2847C34.0338 27.3487 31.1851 25.6138 28.5459 25.6138Z" fill="#2D2F54"/>
<path d="M40.6664 39.3667C40.2298 39.3653 39.8025 39.4943 39.4388 39.7374C39.075 39.9804 38.7911 40.3266 38.6231 40.732C38.455 41.1374 38.4103 41.5839 38.4947 42.015C38.579 42.446 38.7886 42.8421 39.0969 43.1532C39.4052 43.4643 39.7983 43.6764 40.2264 43.7626C40.6546 43.8489 41.0986 43.8053 41.5022 43.6375C41.9057 43.4697 42.2507 43.1853 42.4934 42.8201C42.7362 42.455 42.8658 42.0256 42.8658 41.5863C42.8639 40.9994 42.6319 40.437 42.22 40.0213C41.8081 39.6057 41.2498 39.3704 40.6664 39.3667Z" fill="#2D2F54"/>
<path d="M58.8198 39.3667C58.3831 39.3653 57.9558 39.4943 57.5921 39.7374C57.2283 39.9804 56.9445 40.3266 56.7764 40.732C56.6083 41.1374 56.5637 41.5839 56.648 42.015C56.7323 42.446 56.9419 42.8421 57.2502 43.1532C57.5585 43.4643 57.9516 43.6764 58.3798 43.7626C58.8079 43.8489 59.2519 43.8053 59.6555 43.6375C60.059 43.4697 60.404 43.1853 60.6468 42.8201C60.8895 42.455 61.0191 42.0256 61.0191 41.5863C61.0191 40.9988 60.7876 40.4353 60.3753 40.0193C59.9631 39.6032 59.4037 39.3686 58.8198 39.3667Z" fill="#2D2F54"/>
<path d="M50.7208 74.1421C41.7279 74.1421 34.3828 67.4132 34.3828 59.146C34.3828 50.8789 41.7279 44.157 50.7208 44.157C59.7136 44.157 67.0308 50.8789 67.0308 59.146C67.0308 67.4132 59.7136 74.1421 50.7208 74.1421ZM50.7208 48.3713C44.039 48.3713 38.572 53.2038 38.572 59.146C38.572 65.0882 44.039 69.9277 50.7208 69.9277C57.4026 69.9277 62.8416 65.0953 62.8416 59.146C62.8416 53.1968 57.4235 48.3713 50.7208 48.3713Z" fill="#2D2F54"/>
<path d="M59.6021 59.4061C59.4237 59.3609 59.2382 59.3516 59.0563 59.3787C58.8744 59.4059 58.6996 59.4689 58.5419 59.5642C58.3843 59.6595 58.2469 59.7851 58.1377 59.934C58.0284 60.0828 57.9495 60.2519 57.9054 60.4315C57.7827 60.9682 57.5059 61.4566 57.1095 61.8363C56.7349 62.1384 56.2803 62.3228 55.8022 62.3665C55.3242 62.4102 54.8439 62.3113 54.4214 62.0822C54.0208 61.8908 53.6713 61.6063 53.4018 61.252C53.1323 60.8978 52.9504 60.4842 52.8714 60.0452H52.9412H53.011C53.9815 59.4833 56.2577 57.9381 56.2926 56.0697C56.2913 55.6164 56.1679 55.172 55.9356 54.7836C55.7032 54.3952 55.3705 54.0775 54.973 53.8642C53.9088 53.2628 52.702 52.9641 51.482 53.0002C49.0522 53.0002 46.2734 53.9274 45.8963 55.9643C45.5961 57.5517 46.811 58.9144 49.4851 60.0171C49.4143 60.4708 49.2341 60.9 48.9603 61.2674C48.6864 61.6347 48.3272 61.929 47.9141 62.1243C47.4916 62.3535 47.0113 62.4523 46.5333 62.4086C46.0552 62.3649 45.6006 62.1805 45.226 61.8785C44.8296 61.4988 44.5528 61.0103 44.4301 60.4737C44.3375 60.1114 44.1056 59.8009 43.7855 59.6105C43.4653 59.4202 43.0831 59.3656 42.723 59.4587C42.3628 59.5519 42.0542 59.7851 41.865 60.1072C41.6758 60.4293 41.6215 60.8138 41.7141 61.1761C41.977 62.2241 42.5288 63.1761 43.306 63.9224C44.2268 64.7719 45.4361 65.2344 46.6853 65.2148C47.5206 65.2112 48.345 65.0243 49.1011 64.667C49.9253 64.2883 50.6446 63.7118 51.1957 62.9882C51.7468 63.7118 52.4661 64.2883 53.2903 64.667C54.0463 65.0243 54.8708 65.2112 55.7061 65.2148C56.9553 65.2344 58.1646 64.7719 59.0854 63.9224C59.865 63.178 60.4172 62.2253 60.6773 61.1761C60.7313 60.9886 60.7459 60.7919 60.7201 60.5985C60.6943 60.405 60.6287 60.2191 60.5276 60.0526C60.4264 59.8861 60.2919 59.7426 60.1325 59.6312C59.9732 59.5199 59.7925 59.4432 59.6021 59.4061Z" fill="#2D2F54"/>
</svg>
