<svg width="101" height="100" viewBox="0 0 101 100" fill="none" xmlns="http://www.w3.org/2000/svg">
<path fill-rule="evenodd" clip-rule="evenodd" d="M97.7186 89.6253L97.7519 89.6215C96.4909 87.2793 96.9635 84.9417 97.4363 82.6028C97.5213 82.1826 97.6063 81.7623 97.6812 81.342C97.937 80.9766 98.0765 80.5321 98.0788 80.0746C98.7495 73.9238 98.8729 67.7252 98.9962 61.537C99.0148 60.6035 99.0334 59.6703 99.0539 58.7375C99.2483 49.989 98.9743 41.2438 98.6326 32.4954C98.3999 26.586 98.07 20.6988 97.3365 14.8369C97.2232 13.8943 97.3494 12.9361 97.7018 12.0644C98.5622 9.80944 99.3996 7.54314 100.237 5.27699C100.391 4.85884 100.546 4.44069 100.7 4.02262C101.042 3.10057 101.163 2.20069 100.677 1.29131C100.035 0.0872589 98.83 -0.324654 97.3837 0.267869C95.5183 1.02872 93.6671 1.83543 91.8163 2.64199C91.139 2.93715 90.4618 3.23229 89.7839 3.52516C89.0605 3.89498 88.2563 4.043 87.4597 3.95291C85.3975 3.60942 83.3272 3.40046 81.2555 3.19136C80.8238 3.14778 80.3919 3.10419 79.9601 3.05938C73.6092 2.40665 67.2378 2.24189 60.8752 2.10881C51.234 1.90919 41.5899 2.09613 31.9488 2.5429C30.3391 2.61736 28.7305 2.71553 27.122 2.8137C24.9659 2.94529 22.81 3.07686 20.6522 3.15127C20.1867 3.11576 19.7254 3.26577 19.3561 3.57269C19.0858 3.7418 18.788 3.76057 18.4911 3.77928C18.3319 3.78931 18.173 3.79932 18.0188 3.83251C17.413 3.96422 16.797 3.99159 16.1815 4.01893C15.54 4.04743 14.899 4.07591 14.2705 4.2225C14.1343 4.24257 13.9887 4.28023 13.8328 4.33671C12.684 4.55851 11.6206 4.27968 10.5543 3.79806C8.85273 3.02665 7.13514 2.29491 5.41807 1.5634L5.41804 1.56339C4.80765 1.30335 4.19733 1.04333 3.58781 0.781577C1.74972 -0.00739632 1.26369 0.113009 0.00883704 1.65293L0 3.27841C0.319523 4.86027 0.78835 6.40292 1.39919 7.88234C1.68859 8.63859 1.97043 9.39935 2.25233 10.1603L2.25237 10.1604L2.25238 10.1604L2.2524 10.1605C2.49844 10.8246 2.74453 11.4889 2.99574 12.1504C3.35678 13.0691 3.4592 14.0816 3.2903 15.0623C1.99992 22.7917 1.85223 30.6192 1.70491 38.4267L1.69081 39.1719C1.50621 48.9945 1.64171 58.8181 2.09731 68.6428L2.13382 69.3867C2.37989 74.4072 2.62549 79.418 3.24023 84.4001C3.44845 85.9616 3.26015 87.5546 2.69528 89.0104C2.47804 89.5872 2.25152 90.1609 2.0249 90.7348L2.02484 90.7349C1.22207 92.7679 0.418023 94.8041 0.0206197 96.9983V98.6175C1.27547 100.161 1.75856 100.278 3.60549 99.4888C4.21967 99.2263 4.83683 98.9713 5.45385 98.7164C6.86986 98.1315 8.2851 97.5469 9.66176 96.8716C11.246 96.0932 13.0109 95.8437 14.7283 96.1555C22.876 97.4071 31.1003 97.6162 39.3128 97.781C50.7341 97.9964 62.1397 97.8053 73.5296 97.2074C77.2912 97.0047 81.0587 96.7765 84.8055 96.2569C85.0656 96.2211 85.3253 96.18 85.5851 96.1389C87.0763 95.903 88.5674 95.6671 90.1077 96.447C91.8141 97.3105 93.5812 98.0388 95.3485 98.7672C96.1623 99.1026 96.9761 99.438 97.7841 99.7867C98.6325 100.161 99.4366 100.059 100.105 99.3589C100.396 99.0891 100.6 98.7285 100.691 98.3276C100.782 97.9266 100.754 97.5051 100.612 97.1219C100.365 96.4536 100.127 95.7817 99.8894 95.1099L99.8892 95.1093L99.889 95.1088L99.8888 95.1082L99.8886 95.1076L99.8884 95.107L99.8882 95.1065L99.888 95.1059L99.8878 95.1053L99.8876 95.1048L99.8873 95.1042L99.8871 95.1036L99.8869 95.103L99.8867 95.1025L99.8865 95.1019L99.8863 95.1013L99.8861 95.1008L99.8859 95.1002L99.8857 95.0996L99.8855 95.099L99.8853 95.0985C99.2322 93.2547 98.5795 91.4119 97.7517 89.6472C97.7407 89.6398 97.7297 89.6325 97.7186 89.6253Z" fill="white"/>
<path d="M38.5543 47.6206C39.0506 47.6206 39.5357 47.4733 39.9484 47.1974C40.3611 46.9216 40.6827 46.5295 40.8726 46.0707C41.0626 45.612 41.1122 45.1072 41.0154 44.6202C40.9186 44.1332 40.6796 43.6858 40.3287 43.3347C39.9777 42.9836 39.5306 42.7445 39.0438 42.6476C38.5571 42.5507 38.0525 42.6005 37.594 42.7905C37.1355 42.9805 36.7436 43.3023 36.4678 43.7151C36.1921 44.128 36.0449 44.6134 36.0449 45.11C36.0449 45.7758 36.3093 46.4144 36.7799 46.8852C37.2505 47.3561 37.8888 47.6206 38.5543 47.6206Z" fill="#2D2F54"/>
<path d="M62.0006 47.6206C62.4969 47.6206 62.982 47.4733 63.3947 47.1974C63.8074 46.9216 64.129 46.5295 64.3189 46.0707C64.5088 45.612 64.5585 45.1072 64.4617 44.6202C64.3649 44.1332 64.1259 43.6858 63.775 43.3347C63.424 42.9836 62.9769 42.7445 62.4901 42.6476C62.0034 42.5507 61.4988 42.6005 61.0403 42.7905C60.5818 42.9805 60.1898 43.3023 59.9141 43.7151C59.6384 44.128 59.4912 44.6134 59.4912 45.11C59.4912 45.7758 59.7556 46.4144 60.2262 46.8852C60.6968 47.3561 61.335 47.6206 62.0006 47.6206Z" fill="#2D2F54"/>
<path d="M63.6401 22.6812C64.4214 21.2701 64.7263 19.6442 64.5093 18.0457C64.4161 17.5045 64.2063 16.9901 63.8943 16.5382C63.5824 16.0864 63.1758 15.7079 62.7028 15.4292C62.0633 15.0723 61.3414 14.8898 60.6092 14.8999C58.7674 15.053 57.0164 15.7654 55.5905 16.9416C54.5625 15.0889 53.0433 14 51.3049 14C49.5665 14 48.0397 15.0511 47.0118 16.9416C45.5796 15.7913 43.8322 15.1031 42.0006 14.9679C41.2684 14.9579 40.5464 15.1404 39.9069 15.4973C39.4443 15.7663 39.044 16.1306 38.7326 16.566C38.4212 17.0014 38.2057 17.498 38.1005 18.023C37.8655 19.4475 38.0822 20.9099 38.7203 22.2048C32.0725 24.6284 26.3288 29.0356 22.2655 34.8307C18.2021 40.6258 16.0151 47.5293 16 54.6082C16 72.4999 30.2021 85 50.5037 85C70.8053 85 84.9999 72.4999 84.9999 54.6082C85.0198 47.7639 82.9978 41.0694 79.1925 35.3816C75.3873 29.6939 69.9721 25.2717 63.6401 22.6812ZM50.5037 80.4628C29.8015 80.4628 20.535 67.4788 20.535 54.6082C20.5426 48.0241 22.7128 41.6251 26.7115 36.396C30.7103 31.1669 36.316 27.3975 42.6657 25.6682C43.0179 25.5724 43.3417 25.393 43.6097 25.1452C43.8777 24.8973 44.082 24.5885 44.2051 24.2448C44.3283 23.9011 44.3667 23.5327 44.3172 23.171C44.2676 22.8093 44.1315 22.4649 43.9204 22.167C43.3351 21.3975 42.8922 20.5292 42.6128 19.6035C44.0691 20.236 45.3617 21.193 46.392 22.4014C46.6782 22.7192 47.0485 22.9495 47.4599 23.0658C47.8714 23.182 48.3073 23.1796 48.7175 23.0586C49.1276 22.9376 49.4952 22.7031 49.7778 22.3821C50.0604 22.0611 50.2465 21.6667 50.3148 21.2444C50.4135 20.2966 50.7603 19.3915 51.32 18.6204C51.8763 19.3933 52.2227 20.2975 52.3253 21.2444C52.3946 21.6651 52.581 22.0577 52.8631 22.3773C53.1452 22.6969 53.5116 22.9304 53.9203 23.0512C54.3289 23.172 54.7634 23.1751 55.1738 23.0601C55.5841 22.9452 55.9538 22.7169 56.2405 22.4014C57.2739 21.1983 58.5658 20.2444 60.0196 19.611C59.6962 20.6559 59.1838 21.6324 58.508 22.4922C58.2894 22.7768 58.1414 23.1093 58.0763 23.4623C58.0111 23.8153 58.0306 24.1788 58.1332 24.5227C58.2357 24.8667 58.4184 25.1815 58.6662 25.4411C58.914 25.7007 59.2198 25.8977 59.5586 26.0161C65.6371 27.9256 70.9454 31.7309 74.7071 36.8755C78.4688 42.0201 80.4864 48.234 80.4649 54.6082C80.4649 67.4788 71.2059 80.4628 50.5037 80.4628Z" fill="#2D2F54"/>
<path d="M49.9294 49.4583C43.9961 49.4583 35.1982 53.5796 35.1982 59.2889C35.1982 64.9982 43.8601 75.1692 49.9294 75.1692C55.9987 75.1692 64.653 64.847 64.653 59.2889C64.653 53.7308 55.8551 49.4583 49.9294 49.4583Z" fill="#2D2F54"/>
</svg>
