<svg width="73" height="66" viewBox="0 0 73 66" fill="none" xmlns="http://www.w3.org/2000/svg">
<path d="M14.6987 2.72105C17.6481 2.38312 20.6113 2.27534 23.569 2.13842C28.5243 1.91993 33.4795 1.79467 38.4403 1.8471C44.7486 1.91313 51.0513 2.15784 57.3484 2.58121C59.1219 2.70065 60.8926 2.87253 62.6661 3.01236C64.0757 3.13714 65.4815 2.73147 66.6337 1.8675C67.3364 1.36061 68.0447 0.853722 68.7862 0.410925C70.5929 -0.675677 72.7233 0.719718 72.8672 2.38021C73.0332 2.77348 72.8063 3.21337 73 3.60373V3.75521C72.8672 4.76316 72.217 5.4827 71.7218 6.28382C70.9194 7.57725 70.485 8.96973 70.6676 10.5166C70.8087 11.7256 70.9913 12.9287 71.1352 14.1347C71.1826 14.4045 71.1984 14.6795 71.1823 14.9533C71.1782 15.0471 71.1527 15.1384 71.1079 15.2196C71.0631 15.3008 71.0003 15.3693 70.9249 15.4194C70.5884 15.5464 70.2291 15.5922 69.8736 15.5534H15.7252C15.3501 15.5958 14.9708 15.5439 14.6185 15.4019C14.5392 15.345 14.4761 15.2664 14.4359 15.1747C14.3535 14.887 14.3216 14.5859 14.3418 14.2862C14.3418 11.3847 14.3418 8.48421 14.3418 5.58466C14.3418 4.80977 14.5078 4.04653 14.5023 3.26872C14.4971 3.16807 14.5119 3.06738 14.5457 2.97309C14.5795 2.87879 14.6316 2.79295 14.6987 2.72105Z" fill="#FEC636"/>
<path d="M72.9972 54.1725C72.2696 55.9874 71.3814 56.672 69.8957 56.5788C69.3285 56.5119 68.7872 56.2921 68.3242 55.9408C67.1428 55.163 66.0692 54.1783 64.6831 53.7851C64.5697 53.753 64.4507 53.7355 64.3345 53.7122C64.0855 53.5025 64.1712 53.2199 64.1851 52.9519C64.2238 52.1799 64.3428 51.4167 64.3926 50.6476C64.6175 47.9735 64.7044 45.2885 64.6527 42.6044C64.6527 42.1878 64.5863 41.7538 64.8436 41.378C65.0658 41.2331 65.3287 41.1734 65.5878 41.209C67.1446 41.209 68.7014 41.209 70.2581 41.209C70.5625 41.209 70.8834 41.1828 71.0882 41.5003C71.3178 42.2024 71.0411 42.8812 70.9941 43.5716C70.9424 44.2178 70.8575 44.8606 70.7395 45.4972C70.5688 46.4205 70.5939 47.3722 70.813 48.2842C71.032 49.1962 71.4396 50.046 72.0067 50.7729C72.5098 51.4039 72.8508 52.1601 72.9972 52.9694V54.1725Z" fill="#FEC636"/>
<path d="M72.998 3.60145C72.7203 3.22244 72.9091 2.78512 72.8647 2.37695L72.998 2.40028V3.60145Z" fill="#FECD4F"/>
<path d="M14.5577 15.1712C14.5577 15.2091 14.5577 15.247 14.5577 15.2849C14.8841 16.1064 14.815 16.989 14.898 17.8455C15.064 19.4973 15.0889 21.1723 15.5841 22.7745C15.5841 23.0076 15.4375 23.0659 15.2715 23.1241C14.0846 23.162 13.0415 22.7163 12.062 22.0637C11.5585 21.7287 11.0854 21.35 10.5652 21.047C9.60793 20.4936 8.62849 20.6159 7.94233 21.3558C7.25618 22.0958 7.18147 23.0717 7.68502 24.0592C7.84966 24.3923 8.04225 24.7091 8.26051 25.006C9.34508 26.4189 9.50002 28.0415 9.26485 29.7603C9.04074 31.3945 8.85537 33.0317 8.71149 34.6747C8.65063 35.4292 8.68106 35.4933 9.41702 35.4933C12.6929 35.4933 15.9715 35.5137 19.2501 35.4933C19.8201 35.4613 20.39 35.4933 20.96 35.4933C35.0133 35.4933 49.0657 35.4933 63.1172 35.4933C63.5654 35.4933 64.0219 35.4321 64.4535 35.6186C64.744 35.9361 64.4342 35.9885 64.2599 36.0439C63.9114 36.1192 63.5545 36.1408 63.2002 36.108H20.8631C19.6043 36.108 19.5877 36.108 20.1825 37.3111C22.1627 41.3313 24.6937 45.0229 27.6943 48.2674C28.2476 48.8501 28.8203 49.4327 29.3543 50.0299C29.5369 50.2396 29.88 50.4494 29.595 50.8368C29.3309 50.9439 29.0463 50.9828 28.765 50.9504H9.36168C9.0544 50.9935 8.74178 50.9482 8.45695 50.8194C8.11111 50.4494 8.10834 49.9629 8.07791 49.4939C7.9451 47.2799 7.90083 45.063 7.92573 42.8432C7.92573 41.6779 7.92573 41.6779 6.81903 41.6779C5.58782 41.6779 4.3566 41.6779 3.12539 41.6779C2.79463 41.7102 2.46107 41.6746 2.14319 41.573C1.83055 41.4245 2.04082 41.0662 1.88312 40.8535C1.69498 38.3569 1.4847 35.8604 1.32976 33.3609C1.26613 32.3675 1.3104 31.3654 1.3104 30.3662C1.3104 27.2986 1.24676 24.2311 1.4598 21.1694C1.61474 19.0428 1.80565 16.9512 1.98549 14.845C5.79256 14.9702 9.60239 14.8683 13.4095 14.9061C13.8051 14.9207 14.2229 14.845 14.5577 15.1712Z" fill="#E8ECF0"/>
<path d="M54.2082 63.8906C46.7878 64.3713 39.3645 64.6538 31.9302 64.4732C26.5157 64.3684 21.1177 64.077 15.7253 63.6051C14.389 63.4574 13.0499 63.8558 11.9846 64.7179C11.5421 65.0574 11.0801 65.3678 10.6012 65.6472C10.163 65.9323 9.64502 66.05 9.13416 65.9805C8.6233 65.911 8.15071 65.6586 7.79572 65.2656C7.05146 64.4441 6.82736 63.1944 7.51905 62.3117C9.17911 60.2142 9.45578 57.8983 8.87476 55.3464C8.77804 54.8061 8.7106 54.2604 8.67279 53.7121C8.30126 52.8245 8.19511 51.8389 8.36844 50.8863C8.55658 50.7319 8.77792 50.7989 8.98543 50.7989C15.8664 50.7989 22.7446 50.7989 29.6255 50.7756C29.9574 50.7891 30.2712 50.9386 30.4998 51.1922C32.0244 52.5821 33.6215 53.8815 35.2835 55.0842C39.3511 58.003 43.834 60.2215 48.564 61.6562C51.118 62.4332 53.7314 62.9742 56.3746 63.273C56.5849 63.2963 56.8062 63.3051 56.9141 63.5643C56.8959 63.6257 56.8588 63.679 56.8088 63.7159C56.7587 63.7528 56.6985 63.7712 56.6374 63.7682C56.3316 63.7605 56.0257 63.7849 55.7244 63.8411C55.4671 63.8702 55.207 63.8411 54.9497 63.8556C54.7022 63.833 54.4529 63.8448 54.2082 63.8906Z" fill="#717ED3"/>
<path d="M56.889 63.5964C55.6578 63.4042 54.4238 63.2468 53.2009 63.0138C47.2235 61.8847 41.5135 59.5354 36.3928 56.098C34.2477 54.6406 32.2043 53.0236 30.2783 51.2593C29.9792 50.9822 29.5887 50.8399 29.1909 50.8631C22.2832 50.8631 15.3737 50.8631 8.46231 50.8631C8.42357 50.831 8.40974 50.799 8.4208 50.764C8.43187 50.7291 8.44294 50.7116 8.45677 50.7116H28.7427C29.0498 50.7116 29.3597 50.7116 29.6668 50.6912C29.9435 50.4348 30.2893 50.4756 30.6158 50.4727H63.5541C63.9055 50.4727 64.2763 50.429 64.564 50.7262L64.3316 53.7063C64.1739 55.0143 63.9996 56.3281 63.8613 57.6303C63.7267 58.9111 64.07 60.1969 64.8186 61.2164C65.0565 61.5572 65.2861 61.9068 65.4964 62.268C65.7814 62.7199 65.9122 63.2602 65.8674 63.8005C65.8227 64.3409 65.6051 64.8492 65.2502 65.2423C64.9001 65.6392 64.4311 65.8973 63.9218 65.9731C63.4124 66.049 62.8938 65.938 62.453 65.6589C61.6949 65.2016 60.9727 64.6743 60.2396 64.182C59.8275 63.9353 59.3812 63.7584 58.917 63.6576C58.2337 63.5789 57.553 63.8906 56.889 63.5964Z" fill="#8993DA"/>
<path d="M14.5577 15.1714L2.4891 15.1889C2.25945 15.1889 1.99384 15.2384 1.98554 14.8568C2.17092 13.3769 2.37012 11.9 2.5389 10.4172C2.68342 9.09192 2.39033 7.75466 1.70887 6.6301C1.34089 5.99212 0.914806 5.39201 0.527458 4.76569C0.145694 4.18731 -0.0339875 3.48755 0.0189767 2.78543C0.0719408 2.08331 0.35428 1.42218 0.817969 0.914514C1.28503 0.407734 1.90634 0.089838 2.57338 0.0163574C3.24041 -0.0571232 3.91077 0.118483 4.46733 0.5125C5.04835 0.894122 5.63767 1.27283 6.18826 1.70106C7.74872 2.92167 9.48625 3.15763 11.3732 2.93915C12.4713 2.76027 13.5826 2.68714 14.6933 2.72066C14.483 6.86897 14.5909 11.0231 14.5577 15.1714Z" fill="#F9A90A"/>
<path d="M8.45705 50.7175V50.869C8.53175 51.8158 8.60369 52.7655 8.67839 53.7123C7.09027 54.0589 5.89503 55.1688 4.58081 56.0428C4.21028 56.3149 3.7854 56.494 3.33886 56.5662C2.89231 56.6384 2.43598 56.6019 2.00496 56.4593C1.58933 56.3256 1.20851 56.0929 0.891946 55.7794C0.575387 55.4658 0.33158 55.0798 0.179389 54.6512C0.0271975 54.2226 -0.0292973 53.7628 0.014275 53.3075C0.0578473 52.8522 0.200319 52.4136 0.430666 52.0255C0.673821 51.5961 0.938896 51.1809 1.22473 50.7816C2.44487 49.1095 2.78795 47.2509 2.44487 45.2001C2.24566 44.0348 2.14053 42.8695 1.99389 41.7043C1.96843 41.655 1.95797 41.5987 1.9639 41.5429C1.96984 41.4872 1.9919 41.4347 2.02709 41.3926C3.85315 41.3926 5.68199 41.4217 7.51082 41.3926C8.06417 41.3926 8.17761 41.5645 8.16654 42.1092C8.11121 44.5562 8.16009 47.0033 8.31318 49.4503C8.33255 49.8756 8.40448 50.2951 8.45705 50.7175Z" fill="#F9A90A"/>
<path d="M56.8892 63.5963C57.5615 63.5963 58.2366 63.4711 58.9034 63.6575C58.4994 63.8787 58.0733 63.7681 57.6417 63.7972C57.325 63.8573 57.0019 63.8711 56.6816 63.8379C56.5848 63.8059 56.5627 63.7419 56.6097 63.6487L56.8892 63.5963Z" fill="#FECC4D"/>
<path d="M56.6071 63.7861L57.6418 63.8124C56.7343 64.0462 55.813 63.9176 54.8972 63.9176C54.8474 63.8942 54.8308 63.8679 54.8474 63.8446C54.8525 63.835 54.8597 63.8269 54.8684 63.8208C54.877 63.8147 54.8869 63.8108 54.8972 63.8095L55.7272 63.7773C56.0136 63.6791 56.3225 63.6821 56.6071 63.7861Z" fill="#F8CF68"/>
<path d="M54.897 63.7862C54.8943 63.8222 54.8943 63.8583 54.897 63.8943H54.2053C54.417 63.7746 54.6616 63.7364 54.897 63.7862Z" fill="#E4CA92"/>
<path d="M64.5643 50.7294H30.6631C30.3311 50.7294 29.9991 50.7119 29.667 50.7032C28.8038 49.7768 27.924 48.8621 27.0774 47.9182C24.64 45.196 22.528 42.1701 20.7885 38.9079C20.2766 37.9553 19.8035 36.9823 19.2336 35.8636H20.1743C34.6869 35.8636 49.1976 35.8636 63.7066 35.8636C63.9971 35.8636 64.3291 36.0064 64.5753 35.7005C64.152 35.0072 64.2544 34.2061 64.1824 33.4457C64.0275 31.8552 63.7564 30.2821 63.6512 28.6857C63.5702 27.3483 63.9592 26.0263 64.7441 24.9714C65.0213 24.5968 65.2588 24.1914 65.4524 23.7624C65.6152 23.378 65.6676 22.9518 65.6031 22.5364C65.5386 22.121 65.36 21.7345 65.0893 21.4247C64.8186 21.115 64.4677 20.8954 64.0799 20.7931C63.6921 20.6909 63.2844 20.7104 62.907 20.8493C62.48 21.0067 62.0828 21.2424 61.7339 21.5455C59.9853 23.0429 57.9904 23.2934 55.8268 23.0021C53.9703 22.7399 52.0917 22.7312 50.2241 22.5826C46.9593 22.3234 43.6835 22.2913 40.4159 22.1864C37.5274 22.0845 34.6251 22.0029 31.7338 22.268C31.4267 22.2971 31.1196 22.2942 30.8097 22.2913C27.4896 22.2913 24.1695 22.4952 20.8494 22.7137C19.466 22.8069 18.1047 22.9031 16.7352 23.0254C16.3451 23.0604 15.9245 23.1361 15.5731 22.8332C14.8897 22.5156 15.089 21.7844 15.0198 21.2717C14.7413 19.2918 14.5842 17.2951 14.5494 15.2939C14.8565 15.2939 15.1664 15.2939 15.4735 15.2939H70.9693C71.1436 15.4746 70.9555 15.7513 71.1215 15.9319C71.3096 18.4751 71.5171 21.0183 71.6748 23.5644C71.7357 24.5577 71.6914 25.5599 71.6914 26.5561C71.6914 29.5946 71.7468 32.6359 71.542 35.6685C71.4314 37.3464 71.2654 39.0215 71.1187 40.6994C71.1021 41.2646 70.8199 41.3928 70.3081 41.3811C68.7199 41.3433 67.129 41.3636 65.5409 41.3811C65.314 41.3811 65.065 41.2937 64.8548 41.4714C64.8326 44.1777 64.9129 46.887 64.6998 49.5904C64.6971 49.9458 64.6168 50.3361 64.5643 50.7294Z" fill="#F6F8F9"/>
<path d="M71.1415 15.9033C70.9249 15.7342 71.0249 15.4835 70.9888 15.2649C70.9888 15.1278 71.0082 14.9937 71.0193 14.8567C71.2581 15.1803 71.0943 15.5564 71.1415 15.9033Z" fill="#FBF0D4"/>
<path d="M64.8739 41.4342C65.0676 41.1427 65.3526 41.271 65.596 41.268C67.1316 41.268 68.6699 41.2389 70.2055 41.268C70.6924 41.2826 70.9968 41.1514 71.1379 40.6616C71.0936 41.0086 71.2541 41.3817 71.0217 41.7054C70.994 41.3905 70.7754 41.4138 70.5568 41.4138L64.8739 41.4342Z" fill="#F9F0D6"/>
<path d="M15.584 22.8242C18.3978 22.6319 21.2089 22.4338 24.0227 22.2415C25.2317 22.1629 26.4408 22.1279 27.6499 22.0959C31.634 21.9852 35.621 21.8046 39.6079 21.9327C43.4813 22.0464 47.3354 22.1891 51.1951 22.3843C53.4085 22.495 55.5859 22.763 57.7855 22.9028C58.9088 22.9727 59.9076 22.5183 60.8511 21.8803C61.5843 21.3851 62.2345 20.7354 63.1254 20.5228C63.5193 20.4179 63.9336 20.4347 64.3187 20.5711C64.7039 20.7075 65.0436 20.9577 65.2973 21.2918C65.6006 21.617 65.7999 22.0338 65.8674 22.484C65.9348 22.9342 65.8671 23.3953 65.6736 23.803C65.4531 24.2725 65.187 24.7167 64.8795 25.1285C63.889 26.4947 63.687 28.0241 63.9333 29.673C64.2293 31.6685 64.434 33.6756 64.5752 35.6886C64.2985 35.6886 64.0052 35.7061 63.723 35.7061H19.9721C19.6954 35.7061 19.4022 35.7061 19.1172 35.6857C18.8623 35.4572 18.6711 35.1602 18.5638 34.8263C17.0723 31.3806 15.9683 27.7632 15.2742 24.0477C15.2078 23.6952 15.0528 23.3223 15.2742 22.9611L15.584 22.8242Z" fill="#8993DA"/>
<path d="M15.2769 22.9554C15.7125 25.4949 16.3246 27.9972 17.1085 30.4422C17.6923 32.2279 18.431 33.9379 19.12 35.6858C15.7224 35.6858 12.3276 35.6858 8.93274 35.7149C8.48729 35.7149 8.40982 35.5256 8.45963 35.1323C8.68373 33.2766 8.82484 31.4122 9.10152 29.5624C9.33116 28.033 9.17069 26.5735 8.22722 25.2917C7.93824 24.8956 7.67834 24.4768 7.44976 24.0391C7.20341 23.5916 7.10279 23.0715 7.16323 22.5582C7.22367 22.0449 7.44186 21.5665 7.78453 21.1959C8.13552 20.8181 8.59405 20.5712 9.09044 20.4929C9.58682 20.4145 10.0939 20.509 10.5347 20.7618C11.0305 21.0566 11.5091 21.3825 11.9679 21.7377C12.9324 22.4789 14.0839 22.9027 15.2769 22.9554Z" fill="#717ED3"/>
<path d="M56.607 63.7858H55.7189C55.9978 63.653 56.3088 63.6134 56.6098 63.6724C56.607 63.6898 56.607 63.7305 56.607 63.7858Z" fill="#EFC96C"/>
</svg>
