<svg width="101" height="100" viewBox="0 0 101 100" fill="none" xmlns="http://www.w3.org/2000/svg">
<path fill-rule="evenodd" clip-rule="evenodd" d="M97.7186 89.6253L97.7519 89.6215C96.4909 87.2793 96.9635 84.9417 97.4363 82.6028C97.5213 82.1826 97.6063 81.7623 97.6812 81.342C97.937 80.9766 98.0765 80.5321 98.0788 80.0746C98.7495 73.9238 98.8729 67.7252 98.9962 61.537C99.0148 60.6035 99.0334 59.6703 99.0539 58.7375C99.2483 49.989 98.9743 41.2438 98.6326 32.4954C98.3999 26.586 98.07 20.6988 97.3365 14.8369C97.2232 13.8943 97.3494 12.9361 97.7018 12.0644C98.5622 9.80944 99.3996 7.54314 100.237 5.27699C100.391 4.85884 100.546 4.44069 100.7 4.02262C101.042 3.10057 101.163 2.20069 100.677 1.29131C100.035 0.0872589 98.83 -0.324654 97.3837 0.267869C95.5183 1.02872 93.6671 1.83543 91.8163 2.64199C91.139 2.93715 90.4618 3.23229 89.7839 3.52516C89.0605 3.89498 88.2563 4.043 87.4597 3.95291C85.3975 3.60942 83.3272 3.40046 81.2555 3.19136C80.8238 3.14778 80.3919 3.10419 79.9601 3.05938C73.6092 2.40665 67.2378 2.24189 60.8752 2.10881C51.234 1.90919 41.5899 2.09613 31.9488 2.5429C30.3391 2.61736 28.7305 2.71553 27.122 2.8137C24.9659 2.94529 22.81 3.07686 20.6522 3.15127C20.1867 3.11576 19.7254 3.26577 19.3561 3.57269C19.0858 3.7418 18.788 3.76057 18.4911 3.77928C18.3319 3.78931 18.173 3.79932 18.0188 3.83251C17.413 3.96422 16.797 3.99159 16.1815 4.01893C15.54 4.04743 14.899 4.07591 14.2705 4.2225C14.1343 4.24257 13.9887 4.28023 13.8328 4.33671C12.684 4.55851 11.6206 4.27968 10.5543 3.79806C8.85273 3.02665 7.13512 2.29491 5.41804 1.56339C4.80765 1.30335 4.19733 1.04333 3.58781 0.781577C1.74972 -0.00739635 1.26369 0.113009 0.00883704 1.65293L0 3.27841C0.319523 4.86027 0.78835 6.40292 1.39919 7.88234C1.68859 8.6386 1.97043 9.39938 2.25234 10.1603L2.25236 10.1604L2.25237 10.1604C2.49842 10.8246 2.74452 11.4889 2.99574 12.1504C3.35678 13.0691 3.4592 14.0816 3.2903 15.0623C1.99992 22.7917 1.85223 30.6192 1.70491 38.4267L1.69081 39.1719C1.50621 48.9945 1.64171 58.8181 2.09731 68.6428L2.13382 69.3867C2.37989 74.4072 2.62549 79.418 3.24023 84.4001C3.44845 85.9616 3.26015 87.5546 2.69528 89.0104C2.47804 89.5872 2.25152 90.1609 2.0249 90.7348L2.02484 90.7349C1.22207 92.7679 0.418023 94.8041 0.0206197 96.9983V98.6175C1.27547 100.161 1.75856 100.278 3.60549 99.4888C4.21967 99.2263 4.83683 98.9713 5.45385 98.7164C6.86986 98.1315 8.2851 97.5469 9.66176 96.8716C11.246 96.0932 13.0109 95.8437 14.7283 96.1555C22.876 97.4071 31.1003 97.6162 39.3128 97.781C50.7341 97.9964 62.1397 97.8053 73.5296 97.2074C77.2912 97.0047 81.0587 96.7765 84.8055 96.2569C85.0656 96.2211 85.3253 96.18 85.5851 96.1389C87.0763 95.903 88.5674 95.6671 90.1077 96.447C91.8141 97.3105 93.5812 98.0388 95.3485 98.7672C96.1623 99.1026 96.9761 99.438 97.7841 99.7867C98.6325 100.161 99.4366 100.059 100.105 99.3589C100.396 99.0891 100.6 98.7285 100.691 98.3276C100.782 97.9266 100.754 97.5051 100.612 97.1219C100.365 96.4536 100.127 95.7817 99.8894 95.1099L99.8892 95.1093L99.889 95.1088L99.8888 95.1082L99.8886 95.1076L99.8884 95.107L99.8882 95.1065L99.888 95.1059L99.8878 95.1053L99.8876 95.1048L99.8873 95.1042L99.8871 95.1036L99.8869 95.103L99.8867 95.1025L99.8865 95.1019L99.8863 95.1013L99.8861 95.1008L99.8859 95.1002L99.8857 95.0996L99.8855 95.099L99.8853 95.0985C99.2322 93.2547 98.5795 91.4119 97.7517 89.6472C97.7407 89.6398 97.7297 89.6325 97.7186 89.6253Z" fill="white"/>
<path d="M40.7994 42.3447C40.3769 42.3447 39.9638 42.4703 39.6125 42.7056C39.2612 42.9408 38.9874 43.2752 38.8257 43.6665C38.664 44.0577 38.6217 44.4882 38.7041 44.9036C38.7866 45.3189 38.99 45.7004 39.2888 45.9998C39.5876 46.2993 39.9682 46.5032 40.3826 46.5858C40.797 46.6684 41.2266 46.626 41.6169 46.464C42.0073 46.3019 42.3409 46.0275 42.5757 45.6754C42.8104 45.3233 42.9357 44.9093 42.9357 44.4858C42.9366 44.2044 42.882 43.9256 42.7749 43.6654C42.6679 43.4052 42.5106 43.1688 42.312 42.9698C42.1135 42.7708 41.8776 42.6131 41.618 42.5059C41.3584 42.3986 41.0802 42.3438 40.7994 42.3447Z" fill="#2D2F54"/>
<path d="M61.9013 59.0742C61.7263 59.0298 61.5443 59.0204 61.3656 59.0466C61.187 59.0727 61.0153 59.1339 60.8603 59.2266C60.7052 59.3193 60.57 59.4418 60.4622 59.5869C60.3544 59.732 60.2762 59.897 60.2321 60.0725C60.0175 60.9443 59.5601 61.737 58.9132 62.3582C58.2839 62.879 57.5145 63.2009 56.7025 63.283C55.8905 63.3651 55.0725 63.2038 54.3521 62.8194C53.5438 62.451 52.8604 61.8541 52.3858 61.102C51.9111 60.3498 51.6658 59.4752 51.68 58.5854C52.6829 58.0278 54.5101 56.8023 54.5994 55.1844C54.6192 54.7579 54.523 54.3339 54.3209 53.958C54.1188 53.582 53.8186 53.2682 53.4522 53.0502C52.3936 52.4009 51.1689 52.0755 49.9283 52.1139C47.7577 52.1139 45.3947 52.9194 45.0238 54.7094C44.7146 56.1758 45.7931 57.4632 48.2179 58.5785C48.2317 59.4691 47.9863 60.3445 47.5118 61.0976C47.0372 61.8508 46.3541 62.4491 45.5458 62.8194C44.8254 63.2038 44.0074 63.3651 43.1954 63.283C42.3834 63.2009 41.614 62.879 40.9847 62.3582C40.3413 61.7342 39.8846 60.9426 39.6658 60.0725C39.6207 59.8971 39.5416 59.7323 39.4329 59.5876C39.3243 59.4428 39.1883 59.3209 39.0326 59.2289C38.877 59.1368 38.7048 59.0764 38.5259 59.051C38.3469 59.0257 38.1647 59.0359 37.9897 59.0811C37.8147 59.1263 37.6503 59.2056 37.5059 59.3145C37.3615 59.4234 37.2399 59.5597 37.148 59.7157C37.0562 59.8717 36.9959 60.0443 36.9706 60.2236C36.9453 60.403 36.9555 60.5855 37.0006 60.7609C37.3438 62.1417 38.073 63.3956 39.1025 64.3754C40.3084 65.4767 41.8882 66.0751 43.5194 66.0483C44.624 66.0581 45.7171 65.823 46.7204 65.3599C48.0778 64.7346 49.2082 63.7026 49.9558 62.4064C50.7052 63.7012 51.8351 64.7327 53.1912 65.3599C54.1945 65.823 55.2876 66.0581 56.3922 66.0483C58.0234 66.0751 59.6033 65.4767 60.8091 64.3754C61.8247 63.3885 62.5394 62.1326 62.8698 60.7541C62.9623 60.4026 62.9123 60.0288 62.7309 59.7141C62.5495 59.3994 62.2513 59.1694 61.9013 59.0742Z" fill="#2D2F54"/>
<path d="M86.9669 26.035C86.4792 25.4567 82.7218 21.2158 77.5218 21.0299C73.3454 20.906 68.1729 24.8647 65.8442 26.8818C61.1263 23.9272 55.6684 22.3755 50.1052 22.4071C44.542 22.4388 39.102 24.0526 34.4178 27.0608C32.1235 25.0918 26.7587 20.8854 22.4724 21.0024C17.0114 21.2089 13.1303 25.8973 13.0204 26.0488C12.7731 26.3311 10.6299 28.899 11.0558 31.6942C11.1735 32.4244 11.4538 33.1186 11.876 33.7253C12.2982 34.332 12.8513 34.8355 13.4944 35.1984C14.93 35.9824 16.5529 36.3563 18.186 36.2793C19.6936 36.2584 21.1957 36.0924 22.6716 35.7836L24.121 38.2139C21.8959 42.4597 20.7426 47.1873 20.7619 51.9831C20.7619 67.3013 32.8791 78 50.2306 78C67.5821 78 79.7062 67.2669 79.7062 51.9831C79.7189 47.0262 78.4782 42.1469 76.0999 37.8008L77.3089 35.8112C78.8024 36.1454 80.3261 36.3254 81.8563 36.3482C83.5234 36.4379 85.1778 36.0125 86.596 35.1296C87.2511 34.7153 87.8049 34.1586 88.2163 33.5008C88.6277 32.843 88.8862 32.1008 88.9727 31.3293C89.2475 28.6994 87.3653 26.5101 86.9669 26.035ZM23.0837 31.4463C21.4743 31.8673 19.8214 32.0983 18.1585 32.1348C17.2894 32.2054 16.4172 32.0439 15.6307 31.6666C15.1498 31.3706 15.1155 31.1572 15.1018 31.0608C15.0056 30.4343 15.6238 29.3052 16.139 28.6994C16.139 28.6994 19.0172 25.2571 22.5823 25.14H22.6716C24.8147 25.14 28.2219 27.3431 30.7291 29.381C29.1171 30.7415 27.6486 32.264 26.3466 33.9248L25.4261 32.3689C25.2432 32.0651 24.9853 31.8137 24.6773 31.6388C24.3693 31.464 24.0216 31.3716 23.6676 31.3706C23.4797 31.3721 23.2927 31.3975 23.1112 31.4463H23.0837ZM50.2238 73.8348C32.7143 73.8348 24.8766 62.8195 24.8766 51.9487C24.8713 47.2461 26.1692 42.6345 28.6256 38.6279C31.082 34.6213 34.6003 31.3771 38.7883 29.2569C42.9764 27.1367 47.6697 26.2239 52.345 26.6203C57.0203 27.0166 61.4939 28.7064 65.2672 31.5014C65.4733 31.6598 65.6794 31.8112 65.8717 31.9696L65.9473 32.0315C66.8328 32.7418 67.6746 33.5051 68.4683 34.3172C73.0451 39.0524 75.5983 45.3904 75.5847 51.9831C75.5847 62.8401 67.747 73.8348 50.2238 73.8348ZM84.2399 31.7424C83.5085 32.1301 82.68 32.2953 81.8563 32.2174C80.1853 32.1677 78.5267 31.9134 76.9173 31.4601C76.4806 31.33 76.0132 31.3486 75.5881 31.513C75.163 31.6774 74.8043 31.9784 74.5681 32.3689L73.6201 33.9386C72.9009 33.0235 72.1279 32.1522 71.3052 31.3293L70.5428 30.5789L70.4191 30.4618C70.0344 30.0969 69.6429 29.7734 69.2376 29.4016C71.7449 27.3569 75.1451 25.1332 77.2951 25.1332H77.3844C80.9495 25.2502 83.8002 28.6581 83.8208 28.6856L83.9101 28.7889C84.465 29.3559 84.8072 30.0977 84.8787 30.8887C84.865 31.0264 84.8306 31.3293 84.2399 31.7424Z" fill="#2D2F54"/>
<path d="M65.7962 43.2467C63.495 38.6271 61.029 36.3621 58.2401 36.3621C57.3767 36.373 56.5278 36.5851 55.7603 36.9817C54.7417 37.5174 53.8606 38.2823 53.1861 39.2163C52.5115 40.1503 52.0619 41.2282 51.8724 42.3654C51.4171 44.855 51.8039 47.4257 52.9715 49.67C54.8124 53.367 58.2264 55.7491 61.6747 55.7491C62.7422 55.7629 63.7982 55.5272 64.7589 55.0606C68.4271 53.1949 68.7705 49.2294 65.7962 43.2467Z" fill="#2D2F54"/>
<path d="M58.398 42.3447C57.9743 42.3434 57.5598 42.4683 57.2071 42.7037C56.8545 42.9391 56.5796 43.2742 56.4175 43.6665C56.2553 44.0589 56.2133 44.4906 56.2966 44.907C56.38 45.3233 56.5849 45.7054 56.8855 46.0047C57.1861 46.304 57.5686 46.507 57.9846 46.5878C58.4005 46.6686 58.831 46.6237 59.2214 46.4586C59.6118 46.2936 59.9444 46.016 60.177 45.661C60.4095 45.3061 60.5315 44.8898 60.5274 44.4652C60.5238 43.9016 60.2978 43.3622 59.8989 42.965C59.4999 42.5677 58.9604 42.3447 58.398 42.3447Z" fill="white"/>
</svg>
