<svg width="71" height="63" viewBox="0 0 71 63" fill="none" xmlns="http://www.w3.org/2000/svg">
<path d="M71.0001 23.5791C70.6295 24.5566 69.9254 25.2622 69.2731 26.0051C66.075 29.654 62.8694 33.2971 59.6565 36.9344C59.3619 37.1162 59.184 36.8797 58.9987 36.7115C58.578 36.3277 58.2588 35.8354 58.0722 35.2826C57.8869 34.7372 57.6757 34.1918 57.4515 33.6581C57.3681 33.4627 57.2551 33.2535 57.0179 33.2379C56.7344 33.2183 56.6195 33.449 56.5269 33.6757C56.3175 34.1879 56.1137 34.7059 55.9339 35.2396C55.7803 35.6991 55.5404 36.1213 55.2288 36.481C54.9171 36.8407 54.54 37.1305 54.1199 37.3332C53.8272 37.4856 53.3788 37.558 53.4103 38.0193C53.4344 38.4376 53.829 38.5745 54.1366 38.7211C54.9315 39.0964 55.5263 39.6672 55.8283 40.543C55.9099 40.7834 56.0711 41.0278 55.8876 41.2975C54.0347 43.3989 52.1577 45.4925 50.3029 47.5998C46.1524 52.3187 42.0055 57.0409 37.8624 61.7663C37.3695 62.3273 36.8433 62.8375 36.0595 62.8688C35.8297 62.6088 35.9316 62.3195 36.0132 62.0419C37.0453 58.5233 38.018 54.989 39.0353 51.4684C40.3175 47.0368 41.5719 42.5975 42.8505 38.1757C43.8047 34.8623 44.7367 31.5411 45.6799 28.2218C46.1172 26.6814 46.5396 25.1332 47.0066 23.6007C47.1085 23.2625 47.2567 22.9692 47.6069 22.852C47.8798 22.8035 48.157 22.7871 48.4333 22.8031C55.5979 22.8031 62.7657 22.8031 69.9365 22.8031C70.2978 22.8031 70.6777 22.7229 70.9982 23.0083L71.0001 23.5791Z" fill="#717ED3"/>
<path d="M59.2153 7.15669C60.3549 7.84479 60.9886 9.04699 61.8094 10.0557C64.5647 13.4844 67.2681 16.9561 70.0086 20.3986C70.398 20.9297 70.7304 21.5046 70.9999 22.1129V22.846C70.7609 22.9809 70.5015 22.9124 70.2587 22.9124C62.7556 22.9124 55.2538 22.9124 47.7532 22.9124C47.238 22.6759 47.6012 22.3846 47.7532 22.1735C48.3572 21.3075 48.9909 20.4689 49.6172 19.6323C52.5819 15.6308 55.5002 11.6 58.4649 7.60434C58.6409 7.34045 58.8058 7.01008 59.2153 7.15669Z" fill="#808FF1"/>
<path d="M47.5624 22.6996C47.7904 22.9533 48.0868 22.8401 48.3499 22.8401C55.8987 22.8401 63.4469 22.8401 70.9945 22.8401V22.9865H47.4216L47.3697 22.9221C47.354 22.8674 47.354 22.8089 47.3697 22.7542C47.4179 22.6937 47.4679 22.6371 47.5624 22.6996Z" fill="#91D2F8"/>
<path d="M35.2386 62.9822C34.4338 62.8633 33.6978 62.4386 33.1689 61.7878C32.2424 60.6735 31.2752 59.5906 30.3172 58.5057C28.3988 56.3332 26.478 54.1647 24.5547 52.0001C24.5547 51.6091 24.9049 51.5974 25.1105 51.439C25.6071 51.0598 25.646 50.6161 25.079 50.401C23.5633 49.8263 22.9815 48.5264 22.5331 47.0779C22.4984 46.9617 22.455 46.8486 22.4034 46.7397C22.2774 46.4816 22.1736 46.1532 21.8364 46.1845C21.5437 46.2041 21.4658 46.511 21.3454 46.7455C21.186 47.0544 21.1897 47.4786 20.7895 47.6193C19.1812 45.8105 17.5741 44.0036 15.9682 42.1987C15.2456 41.3816 14.5452 40.541 13.8225 39.7219C11.6583 37.2823 9.49225 34.8584 7.34286 32.4168C5.16197 29.9381 2.99775 27.4438 0.826128 24.967C0.344582 24.4373 0.0564056 23.7448 0.0126953 23.0122C0.348074 22.7034 0.753864 22.8011 1.14112 22.8011C8.15876 22.8011 15.1764 22.8011 22.194 22.8011C22.4831 22.8011 22.887 22.9536 23.0334 22.6643C23.1798 22.375 22.824 22.1169 22.6498 21.8824C20.178 18.5162 17.7285 15.1461 15.2641 11.7936C15.0937 11.5942 14.9627 11.3609 14.8787 11.1075C14.9843 9.82316 15.5105 8.79688 16.5723 8.12834C17.3134 7.66114 18.1213 7.30537 18.8495 6.80103H34.201C34.3622 6.80103 34.5234 6.80103 34.6846 6.80103C35.0552 6.81862 35.0774 7.02778 34.8884 7.27604C34.1824 8.20067 33.5247 9.16243 32.8205 10.0871C32.0312 11.1231 31.2863 12.1982 30.5044 13.2421C30.4536 13.3079 30.4164 13.3841 30.395 13.4659C30.3736 13.5476 30.3686 13.6332 30.3802 13.7171C30.3617 14.2156 30.0523 14.5636 29.7836 14.9252C27.8992 17.4489 26.0611 20.0077 24.1841 22.5489C24.1105 22.6428 24.0483 22.7459 23.9988 22.8559C23.9574 22.9512 23.9438 23.0573 23.9599 23.1608C25.42 28.3821 26.9245 33.5858 28.4069 38.7993C30.5674 46.3956 32.7668 53.9803 34.8921 61.5845C35.0311 62.0419 35.2998 62.47 35.2386 62.9822Z" fill="#C7CDFB"/>
<path d="M35.2385 62.9821C34.5881 61.602 34.312 60.085 33.8877 58.6287C32.8389 55.1101 31.8643 51.568 30.8582 48.0337C29.3054 42.5719 27.7521 37.1095 26.1981 31.6465C25.3791 28.7651 24.5564 25.8844 23.73 23.0043C24.0079 22.7815 24.3303 22.7854 24.6564 22.7854C31.9631 22.7854 39.2698 22.7854 46.5765 22.7854C46.873 22.7854 47.1824 22.7521 47.4307 22.9809V23.0121C47.0601 24.2085 46.6895 25.399 46.3375 26.6012C45.9484 27.9402 45.5852 29.289 45.2109 30.6339C44.8366 31.9788 44.492 33.3335 44.0843 34.6667C43.7138 35.8884 43.3432 37.1082 43.0078 38.3417C42.6372 39.7101 42.211 41.0667 41.8627 42.4468C41.544 43.7077 41.1215 44.9412 40.7676 46.1903C40.397 47.5098 40.0357 48.8351 39.6558 50.1546C39.3094 51.3842 38.9629 52.6138 38.5904 53.8336C38.1754 55.1915 37.7887 56.5599 37.4305 57.9387C37.0914 59.1761 36.7208 60.4252 36.3317 61.6684C36.2131 62.0594 36.0241 62.4308 36.0556 62.8609C35.8055 63.0857 35.509 62.9664 35.2385 62.9821Z" fill="#929FF5"/>
<path d="M30.2356 13.9105C29.9335 13.3397 30.3875 12.9565 30.6376 12.6438C31.2648 11.9031 31.8448 11.1195 32.3738 10.298C32.6651 9.81803 33.0125 9.37865 33.4078 8.99023C33.9914 8.41747 34.2156 7.5554 34.8716 6.87904H18.7697C18.7234 6.84972 18.7067 6.82039 18.7234 6.79107C18.74 6.76175 18.753 6.74611 18.7697 6.74611C31.6771 6.74611 44.5858 6.74611 57.4958 6.74611C58.095 6.71694 58.6904 6.86163 59.2171 7.16444C58.6612 7.25827 58.4908 7.82516 58.2128 8.20244C54.9313 12.6418 51.6813 17.1085 48.422 21.5655C48.1404 21.9565 47.8513 22.3259 47.5641 22.7071L47.427 22.8537C47.3632 22.8739 47.2957 22.8764 47.2308 22.861C47.1658 22.8456 47.1058 22.8128 47.0564 22.7658C45.9965 21.542 45.0904 20.1854 44.1288 18.8796C41.3809 15.1459 38.6219 11.422 35.8925 7.6766C35.5016 7.13903 35.4682 7.14294 35.0495 7.70788C33.6542 9.58644 32.283 11.4846 30.8896 13.3768C30.7192 13.5899 30.6191 13.9515 30.2356 13.9105Z" fill="#ABB4F3"/>
<path d="M14.9749 10.9842C16.0607 12.4913 17.1373 14.0063 18.2323 15.5037C19.8629 17.7341 21.5083 19.9509 23.1426 22.1774C23.2945 22.3729 23.5799 22.629 23.4872 22.844C23.3612 23.1411 22.9925 22.9808 22.7331 22.9828C15.1608 22.9932 7.5873 22.9984 0.0125463 22.9984C-0.0782469 22.021 0.334955 21.2391 0.888979 20.5334C3.44107 17.2832 6.00243 14.0396 8.57305 10.8024C9.22157 9.98137 9.88677 9.17599 10.5446 8.36279C11.232 8.39016 11.471 8.98638 11.7453 9.48485C12.2122 10.3489 12.4716 11.3146 12.8422 12.2216C12.9237 12.4171 12.9867 12.6321 13.0831 12.8256C13.1794 13.0191 13.311 13.2713 13.5759 13.2791C13.8409 13.287 13.9465 13.0309 14.0373 12.81C14.2226 12.3643 14.369 11.9029 14.5635 11.4651C14.6506 11.2833 14.6469 10.9627 14.9749 10.9842Z" fill="#F4F5FE"/>
<path d="M14.9749 10.9843C14.7062 11.6528 14.4338 12.3194 14.1707 12.9879C14.0595 13.2694 13.9206 13.5411 13.6037 13.5529C13.2869 13.5646 13.0701 13.3144 12.9515 12.9997L11.9064 10.2238C11.6211 9.46341 11.2468 8.78118 10.5445 8.36285C9.98867 8.05986 9.43279 7.75882 8.88988 7.44996C8.62121 7.29748 8.34512 7.12351 8.35995 6.75014C8.37352 6.60217 8.43153 6.46264 8.52552 6.35188C8.6195 6.24112 8.74456 6.16491 8.88247 6.13437C10.9096 5.44628 11.9491 3.85507 12.4975 1.78884C12.6419 1.32672 12.8171 0.875988 13.0219 0.440022C13.0595 0.310159 13.1364 0.196857 13.2408 0.117432C13.3452 0.038007 13.4713 -0.00317122 13.6 0.000190655C13.8909 0.0158291 14.0447 0.219129 14.1448 0.486938C14.5154 1.46434 14.9045 2.4222 15.2436 3.40546C15.5593 4.33016 16.2096 5.08511 17.052 5.50493C17.6598 5.83724 18.4658 5.91348 18.766 6.73841C18.7521 6.78152 18.7521 6.82823 18.766 6.87134C18.5362 7.50274 17.934 7.62394 17.4522 7.82919C16.0718 8.41954 15.3121 9.50251 14.9749 10.9843Z" fill="#FEC636"/>
<path d="M55.8839 41.2896C55.6597 40.1363 55.0723 39.2957 54.0161 38.8481C53.7997 38.7639 53.5962 38.6466 53.4121 38.5001C53.0155 38.1658 53.0229 37.8003 53.4343 37.4836C53.6253 37.3468 53.8305 37.2334 54.0458 37.1454C54.454 36.9723 54.8206 36.7055 55.119 36.3644C55.4174 36.0232 55.64 35.6163 55.7708 35.173C55.9561 34.5866 56.1988 34.0432 56.4138 33.4782C56.5268 33.183 56.7066 32.968 57.0271 32.9876C57.1564 32.9981 57.2794 33.0507 57.379 33.1383C57.4786 33.2259 57.5499 33.344 57.583 33.4763C57.8405 34.1526 58.0962 34.8309 58.3612 35.5073C58.6262 36.1837 59.006 36.6802 59.6583 36.9343C59.9362 37.1005 60.2141 37.2549 60.4902 37.4347C60.9905 37.769 60.9961 38.2401 60.4902 38.5744C60.2516 38.7219 60.004 38.8525 59.749 38.9654C59.4039 39.1315 59.0945 39.37 58.8396 39.6664C58.5848 39.9629 58.3898 40.311 58.2667 40.6895C58.0666 41.2564 57.8517 41.8174 57.6478 42.3824C57.5255 42.7186 57.3495 43.0196 56.9734 43.0059C56.6361 42.9942 56.4712 42.7166 56.3526 42.4078C56.2044 42.0344 56.0414 41.663 55.8839 41.2896Z" fill="#FEC636"/>
<path d="M20.7858 47.6194C20.9507 47.2284 21.1211 46.8198 21.2823 46.4171C21.3991 46.122 21.5918 45.9089 21.9012 45.9206C22.181 45.9304 22.3459 46.1669 22.4571 46.4191C22.6832 46.9782 22.9259 47.5333 23.1001 48.112C23.2171 48.5459 23.4289 48.9449 23.7185 49.2769C24.0081 49.6089 24.3675 49.8647 24.7677 50.0238C24.9823 50.1135 25.1868 50.2282 25.3773 50.3659C25.8313 50.7001 25.8313 51.1478 25.3773 51.4879C25.1142 51.6834 24.8214 51.83 24.549 52.0001C23.819 52.2327 23.4373 52.825 23.176 53.5229C22.9333 54.1523 22.6998 54.7857 22.459 55.4171C22.3496 55.7044 22.1736 55.941 21.8605 55.941C21.5473 55.941 21.3713 55.6849 21.2583 55.4112C21.0526 54.9497 20.8743 54.475 20.7246 53.9901C20.5944 53.47 20.3464 52.9911 20.0021 52.5944C19.6577 52.1977 19.2272 51.8952 18.7475 51.7127C18.4159 51.5759 18.036 51.443 18.0064 50.9445C17.9767 50.446 18.3936 50.3072 18.7179 50.1762C19.8593 49.7149 20.4911 48.8157 20.7858 47.6194Z" fill="#FEC636"/>
<path d="M47.1473 22.6992L47.4252 22.8456C47.4252 22.8924 47.4252 22.9412 47.4252 22.988L23.7227 23.0115L23.8524 22.8534C24.0988 22.625 24.4082 22.6191 24.7029 22.6191C31.9577 22.6113 39.2106 22.6113 46.4617 22.6191C46.6922 22.6224 46.9218 22.6492 47.1473 22.6992Z" fill="#9EDBF9"/>
<path d="M47.1472 22.6996C46.9175 22.9517 46.6229 22.8403 46.3597 22.8403C38.8579 22.8403 31.3554 22.8403 23.8523 22.8403C24.4508 21.7163 25.2939 20.7799 26.0221 19.7576C27.2932 17.9728 28.6162 16.2272 29.9132 14.4601C30.0293 14.2828 30.1369 14.0994 30.2356 13.9108C31.2436 12.5606 32.251 11.2092 33.2577 9.85648C33.8544 9.05501 34.4751 8.27114 35.0217 7.43448C35.3923 6.87345 35.6146 6.95164 35.9611 7.43448C37.3508 9.36387 38.7591 11.2835 40.171 13.2012C42.4945 16.3706 44.82 19.5367 47.1472 22.6996Z" fill="#9BA8FC"/>
</svg>
