<svg width="101" height="100" viewBox="0 0 101 100" fill="none" xmlns="http://www.w3.org/2000/svg">
<path fill-rule="evenodd" clip-rule="evenodd" d="M97.7186 89.6253L97.7519 89.6215C96.4909 87.2793 96.9635 84.9417 97.4363 82.6028C97.5213 82.1826 97.6063 81.7623 97.6812 81.342C97.937 80.9766 98.0765 80.5321 98.0788 80.0746C98.7495 73.9238 98.8729 67.7252 98.9962 61.537C99.0148 60.6035 99.0334 59.6703 99.0539 58.7375C99.2483 49.989 98.9743 41.2438 98.6326 32.4954C98.3999 26.586 98.07 20.6988 97.3365 14.8369C97.2232 13.8943 97.3494 12.9361 97.7018 12.0644C98.5622 9.80944 99.3996 7.54314 100.237 5.27699C100.391 4.85884 100.546 4.44069 100.7 4.02262C101.042 3.10057 101.163 2.20069 100.677 1.29131C100.035 0.0872589 98.83 -0.324654 97.3837 0.267869C95.5183 1.02872 93.6671 1.83543 91.8163 2.64199C91.139 2.93715 90.4618 3.23229 89.7839 3.52516C89.0605 3.89498 88.2563 4.043 87.4597 3.95291C85.3975 3.60942 83.3272 3.40046 81.2555 3.19136C80.8238 3.14778 80.3919 3.10419 79.9601 3.05938C73.6092 2.40665 67.2378 2.24189 60.8752 2.10881C51.234 1.90919 41.5899 2.09613 31.9488 2.5429C30.3391 2.61736 28.7305 2.71553 27.122 2.8137C24.9659 2.94529 22.81 3.07686 20.6522 3.15127C20.1867 3.11576 19.7254 3.26577 19.3561 3.57269C19.0858 3.7418 18.788 3.76057 18.4911 3.77928C18.3319 3.78931 18.173 3.79932 18.0188 3.83251C17.413 3.96422 16.797 3.99159 16.1815 4.01893C15.54 4.04743 14.899 4.07591 14.2705 4.2225C14.1343 4.24257 13.9887 4.28023 13.8328 4.33671C12.684 4.55851 11.6206 4.27968 10.5543 3.79806C8.85273 3.02665 7.13512 2.29491 5.41804 1.56339C4.80765 1.30335 4.19733 1.04333 3.58781 0.781577C1.74972 -0.00739635 1.26369 0.113009 0.00883704 1.65293L0 3.27841C0.319523 4.86027 0.78835 6.40292 1.39919 7.88234C1.68859 8.6386 1.97043 9.39938 2.25234 10.1603L2.25236 10.1604L2.25237 10.1604C2.49842 10.8246 2.74452 11.4889 2.99574 12.1504C3.35678 13.0691 3.4592 14.0816 3.2903 15.0623C1.99992 22.7917 1.85223 30.6192 1.70491 38.4267L1.69081 39.1719C1.50621 48.9945 1.64171 58.8181 2.09731 68.6428L2.13382 69.3867C2.37989 74.4072 2.62549 79.418 3.24023 84.4001C3.44845 85.9616 3.26015 87.5546 2.69528 89.0104C2.47804 89.5872 2.25152 90.1609 2.0249 90.7348L2.02484 90.7349C1.22207 92.7679 0.418023 94.8041 0.0206197 96.9983V98.6175C1.27547 100.161 1.75856 100.278 3.60549 99.4888C4.21967 99.2263 4.83683 98.9713 5.45385 98.7164C6.86986 98.1315 8.2851 97.5469 9.66176 96.8716C11.246 96.0932 13.0109 95.8437 14.7283 96.1555C22.876 97.4071 31.1003 97.6162 39.3128 97.781C50.7341 97.9964 62.1397 97.8053 73.5296 97.2074C77.2912 97.0047 81.0587 96.7765 84.8055 96.2569C85.0656 96.2211 85.3253 96.18 85.5851 96.1389C87.0763 95.903 88.5674 95.6671 90.1077 96.447C91.8141 97.3105 93.5812 98.0388 95.3485 98.7672C96.1623 99.1026 96.9761 99.438 97.7841 99.7867C98.6325 100.161 99.4366 100.059 100.105 99.3589C100.396 99.0891 100.6 98.7285 100.691 98.3276C100.782 97.9266 100.754 97.5051 100.612 97.1219C100.365 96.4536 100.127 95.7817 99.8894 95.1099L99.8892 95.1093L99.889 95.1088L99.8888 95.1082L99.8886 95.1076L99.8884 95.107L99.8882 95.1065L99.888 95.1059L99.8878 95.1053L99.8876 95.1048L99.8873 95.1042L99.8871 95.1036L99.8869 95.103L99.8867 95.1025L99.8865 95.1019L99.8863 95.1013L99.8861 95.1008L99.8859 95.1002L99.8857 95.0996L99.8855 95.099L99.8853 95.0985C99.2322 93.2547 98.5795 91.4119 97.7517 89.6472C97.7407 89.6398 97.7297 89.6325 97.7186 89.6253Z" fill="white"/>
<path d="M70.9042 28.5379C70.8197 26.9872 70.4752 24.9953 69.3118 24.3335C69.0317 24.1865 68.718 24.1149 68.4018 24.1258C66.6468 24.1258 62.3179 26.2216 61.1414 28.2849C59.1915 31.7367 62.1619 33.5274 63.5919 34.3839C65.0219 35.2403 66.0423 35.6102 66.9588 35.6102C68.6228 35.6102 69.5133 34.4163 70.1112 33.3717C71.0017 31.7821 70.9497 29.2711 70.9042 28.5379Z" fill="#2D2F54"/>
<path d="M31.1385 24.1259C30.8188 24.1172 30.5025 24.1933 30.222 24.3465C29.052 24.9954 28.7075 27.0002 28.6295 28.551C28.5905 29.2841 28.532 31.7951 29.429 33.3718C30.0205 34.4164 30.9175 35.6103 32.5814 35.6103C33.4979 35.6103 34.5314 35.2339 35.9419 34.384C37.3523 33.534 40.3553 31.7237 38.4053 28.272C37.2223 26.2087 32.8934 24.1259 31.1385 24.1259Z" fill="#2D2F54"/>
<path d="M37.7558 51.1109C37.357 51.1096 36.9668 51.2264 36.6346 51.4467C36.3024 51.6669 36.0431 51.9806 35.8896 52.348C35.7361 52.7154 35.6953 53.12 35.7723 53.5106C35.8493 53.9012 36.0407 54.2602 36.3222 54.5422C36.6038 54.8241 36.9628 55.0163 37.3538 55.0945C37.7449 55.1726 38.1503 55.1332 38.5189 54.9811C38.8875 54.8291 39.2026 54.5713 39.4243 54.2404C39.6459 53.9095 39.7643 53.5203 39.7643 53.1222C39.7651 52.8584 39.7138 52.597 39.6133 52.353C39.5127 52.109 39.3649 51.8872 39.1783 51.7004C38.9917 51.5135 38.77 51.3652 38.5259 51.2641C38.2818 51.1629 38.0201 51.1108 37.7558 51.1109Z" fill="#2D2F54"/>
<path d="M62.7347 51.1108C62.3362 51.1108 61.9466 51.2288 61.6152 51.4498C61.2839 51.6708 61.0256 51.985 60.8731 52.3525C60.7206 52.72 60.6807 53.1245 60.7584 53.5146C60.8362 53.9048 61.0281 54.2632 61.3099 54.5445C61.5917 54.8258 61.9507 55.0173 62.3416 55.095C62.7324 55.1726 63.1376 55.1327 63.5058 54.9805C63.874 54.8283 64.1887 54.5705 64.4101 54.2397C64.6315 53.9089 64.7496 53.52 64.7496 53.1222C64.7496 52.5888 64.5374 52.0772 64.1595 51.7C63.7816 51.3228 63.2691 51.1108 62.7347 51.1108Z" fill="#2D2F54"/>
<path d="M83.4233 59.1628C81.4819 56.8849 80.0266 54.2355 79.1464 51.3768C78.7759 49.4303 77.1055 42.1569 74.3885 37.6345C74.447 37.5437 74.499 37.4853 74.551 37.3879C76.28 34.2541 76.007 28.9985 75.851 26.8833C75.5455 23.6002 74.785 19.4737 72.861 18.4485C72.258 18.1411 71.5881 17.9873 70.9111 18.0008C67.1737 18.0008 60.3228 21.8289 57.1314 25.4883C52.4485 24.338 47.5526 24.367 42.8837 25.5727C39.5688 21.6797 32.5294 18.0073 29.026 18.0073C28.348 17.992 27.6772 18.1482 27.076 18.4615C25.1261 19.5126 24.3851 23.6521 24.0861 26.9352C23.8911 29.0504 23.6246 34.3254 25.3471 37.4528C25.4771 37.6799 25.6005 37.894 25.737 38.1016C22.8771 42.929 21.1416 50.2802 21.0571 50.6241C20.2979 53.8449 18.7324 56.8207 16.5072 59.2731C16.2408 59.5656 16.0698 59.9322 16.0173 60.3241C15.9647 60.7161 16.0329 61.1147 16.2129 61.4669C16.3928 61.8191 16.676 62.1083 17.0247 62.296C17.3734 62.4836 17.771 62.5608 18.1647 62.5172L22.7146 62.0176C22.8056 63.8473 22.7926 66.3518 22.4741 67.364C22.3597 67.7239 22.3525 68.1093 22.4537 68.4732C22.5548 68.8371 22.7597 69.1638 23.0436 69.4134C23.3274 69.6631 23.6779 69.8249 24.0523 69.8792C24.4267 69.9335 24.8088 69.8779 25.1521 69.7193C25.6668 69.4791 26.1548 69.1855 26.608 68.8433C26.66 68.9861 26.7055 69.1288 26.7575 69.2651C27.4075 71.0234 28.129 73.0153 28.6295 74.2286C28.7575 74.5368 28.9628 74.807 29.2255 75.0131C29.4882 75.2193 29.7997 75.3547 30.1299 75.4061C30.4601 75.4576 30.798 75.4235 31.1112 75.307C31.4244 75.1906 31.7024 74.9958 31.9184 74.7412C32.3409 74.2481 32.7374 73.768 33.1079 73.2813C33.9787 73.8361 34.8792 74.3429 35.8053 74.7996L36.0523 75.1111C36.7413 75.961 37.4498 76.8434 38.1583 77.7648C38.3658 78.0349 38.6407 78.2459 38.9555 78.3769C39.2703 78.5078 39.614 78.554 39.9522 78.5109C40.2946 78.4699 40.62 78.3391 40.8952 78.1316C41.1704 77.9242 41.3855 77.6476 41.5187 77.3301L41.7527 76.7721C43.7352 78.0697 46.5691 80.0616 47.1151 80.8402C47.2469 81.1452 47.4546 81.4114 47.7186 81.6135C47.9825 81.8157 48.2939 81.9471 48.6231 81.9952C48.7161 82.0016 48.8095 82.0016 48.9026 81.9952C49.2036 81.9949 49.5006 81.9251 49.7701 81.7911C50.0396 81.6572 50.2744 81.4627 50.456 81.2231C51.1515 80.3926 55.3569 78.0957 58.0674 76.7202L58.3923 77.4079C58.5362 77.7086 58.755 77.9674 59.0277 78.1596C59.3004 78.3517 59.618 78.4707 59.95 78.5052C60.2821 78.5397 60.6174 78.4886 60.9239 78.3567C61.2305 78.2247 61.498 78.0165 61.7008 77.7518C62.4028 76.837 63.1048 75.961 63.7872 75.1175C64.8921 74.6216 65.9665 74.0604 67.0047 73.4371C67.3427 73.8718 67.7002 74.2935 68.0576 74.7347C68.2737 74.9893 68.5517 75.1841 68.8649 75.3005C69.1781 75.417 69.516 75.4511 69.8462 75.3996C70.1764 75.3482 70.4878 75.2128 70.7506 75.0067C71.0133 74.8005 71.2185 74.5303 71.3466 74.2222C71.6066 73.5733 71.9966 72.6714 72.3736 71.6787C72.692 70.8872 73.1015 69.862 73.485 68.9277C73.9027 69.1775 74.3448 69.384 74.8045 69.5441C75.0645 69.6674 75.344 69.5441 75.6235 69.5441C75.8705 69.5618 76.1185 69.5289 76.3523 69.4476C76.5862 69.3663 76.8009 69.2382 76.9835 69.0712C77.166 68.9042 77.3125 68.7017 77.4139 68.4762C77.5154 68.2507 77.5697 68.0069 77.5734 67.7598C77.5723 67.5358 77.5235 67.3147 77.4304 67.111C77.2323 65.4059 77.2323 63.6837 77.4304 61.9787L81.7334 62.4653C82.1413 62.5323 82.5601 62.4682 82.9292 62.2821C83.2982 62.096 83.5985 61.7977 83.7866 61.4301C83.9746 61.0625 84.0408 60.6448 83.9755 60.2373C83.9102 59.8297 83.7169 59.4534 83.4233 59.1628ZM29 21.8679C31.4894 21.9003 38.3663 25.5597 40.4137 28.8104C40.6424 29.1739 40.9849 29.4517 41.3881 29.6008C41.7913 29.7498 42.2326 29.7616 42.6432 29.6344C47.3982 28.1666 52.4819 28.135 57.2549 29.5435C57.6572 29.6617 58.0869 29.6472 58.4803 29.5023C58.8737 29.3574 59.2099 29.0897 59.4388 28.739C61.5448 25.4948 68.3696 21.9003 70.8006 21.8679C71.8276 23.8728 72.874 32.366 71.1191 35.5452C70.9667 35.8354 70.779 36.1057 70.5601 36.3498C70.2588 36.6827 70.0819 37.1093 70.0594 37.5574C70.0369 38.0055 70.1701 38.4476 70.4366 38.8089C71.0172 39.6265 71.5219 40.4952 71.9446 41.4042C68.4671 40.9954 62.8448 41.1122 58.0089 44.7716C53.3875 48.2753 50.69 54.1603 49.962 62.2901C49.234 54.1797 46.5431 48.2948 41.9152 44.7716C37.2873 41.2485 31.7624 41.0084 28.2655 41.3718C28.6659 40.5628 29.1288 39.7862 29.65 39.0489C29.9353 38.6602 30.066 38.1795 30.0168 37.7001C29.9675 37.2207 29.7419 36.7765 29.3835 36.4536C29.0924 36.1929 28.8464 35.8859 28.6555 35.5452C26.933 32.366 28.0055 23.8728 29 21.8679ZM77.2354 58.0727C77.0607 58.0561 76.8896 58.0123 76.7285 57.9429C76.4823 57.8229 76.2135 57.7559 75.9397 57.7465C75.6658 57.7371 75.3931 57.7853 75.1392 57.8882C74.8853 57.991 74.6559 58.1461 74.4661 58.3434C74.2763 58.5406 74.1303 58.7756 74.0375 59.033C73.6833 60.5092 73.4851 62.0184 73.446 63.5359C73.2921 63.4879 73.1326 63.4595 72.9715 63.4515C72.6459 63.4344 72.3212 63.4991 72.0271 63.6397C71.733 63.7802 71.4789 63.9922 71.2881 64.2561C70.9761 64.6843 70.5536 65.6576 68.9871 69.5441C68.6757 69.1625 68.2309 68.9129 67.7425 68.8454C67.2541 68.778 66.7582 68.8978 66.3547 69.1807C64.9334 70.1919 63.4082 71.0489 61.8048 71.7371C61.5181 71.8636 61.2661 72.0573 61.0703 72.3016L60.7583 72.6909L60.5373 72.9569C60.2841 72.6231 59.9298 72.3797 59.527 72.2628C59.1242 72.1459 58.6944 72.1618 58.3014 72.3081C58.2299 72.3081 52.3215 75.1111 49.1105 77.369C46.4456 74.9294 41.6032 72.1783 41.5447 72.1329C41.1371 71.9744 40.6879 71.9574 40.2694 72.0844C39.8509 72.2115 39.4874 72.4754 39.2373 72.8337C39.1975 72.7768 39.1541 72.7226 39.1073 72.6714L38.5873 72.0226C38.397 71.7941 38.1569 71.6121 37.8853 71.4906C36.4109 70.8029 35.0086 69.9704 33.6994 69.0055C33.48 68.8433 33.229 68.7289 32.9625 68.6696C32.696 68.6104 32.42 68.6077 32.1524 68.6617C31.9034 68.7094 31.6665 68.8064 31.4556 68.9468C31.2446 69.0871 31.0639 69.2682 30.9239 69.4792C30.7289 68.9536 30.5339 68.4281 30.3519 67.9155C29.1885 64.7232 29.052 64.321 28.779 63.9641C28.5852 63.6857 28.322 63.4626 28.0153 63.3169C27.7086 63.1712 27.3692 63.1081 27.0305 63.1336C26.8826 63.1448 26.7364 63.1731 26.595 63.218C26.6142 61.7563 26.477 60.2968 26.1855 58.8643C26.0852 58.5676 25.9147 58.2994 25.6884 58.0825C25.462 57.8656 25.1867 57.7065 24.8856 57.6185C24.5882 57.5321 24.2745 57.5177 23.9705 57.5763C23.6664 57.635 23.3808 57.7651 23.1371 57.9559C22.9753 58.0311 22.8015 58.0772 22.6236 58.0922L22.0776 58.1506C23.3088 56.0757 24.2121 53.8238 24.7556 51.4741C24.7556 51.4222 25.4056 48.7036 26.4975 45.6346C28.233 45.2453 34.6029 44.1617 39.5493 47.912C43.5012 50.9031 45.7306 56.3468 46.1791 64.0095C44.9961 64.5351 44.0992 65.3072 43.8717 66.4102C43.4882 68.214 44.9961 69.875 48.3436 71.3543C49.0202 71.6674 49.7558 71.8333 50.5015 71.8409C51.0792 71.8457 51.6512 71.7262 52.1785 71.4906H52.2435C53.2055 70.991 56.3449 69.1937 56.4749 66.9487C56.4942 66.4508 56.3773 65.9571 56.1369 65.5204C55.8964 65.0838 55.5414 64.7207 55.1099 64.4702C54.6909 64.2017 54.2414 63.9839 53.7709 63.8214C54.2454 56.256 56.4684 50.9291 60.3813 47.9639C65.4967 44.0709 72.1331 45.3686 73.5955 45.7254C74.3048 47.8842 74.8843 50.0834 75.331 52.3111C75.3426 52.4274 75.3644 52.5424 75.396 52.655C75.9538 54.594 76.7576 56.454 77.7879 58.1895L77.2354 58.0727Z" fill="#2D2F54"/>
</svg>
