<svg width="155" height="36" viewBox="0 0 155 36" fill="none" xmlns="http://www.w3.org/2000/svg">
<path d="M0.618332 1.49966C0.226665 1.89941 0 2.52179 0 3.32779V32.0773C0 32.8833 0.226665 33.5057 0.618332 33.9054L0.714999 33.9932L17.2383 17.8894V17.5092L0.714999 1.40542L0.618332 1.49966Z" fill="url(#paint0_linear_243_2857)"/>
<path d="M22.7399 23.2607L17.2383 17.8901V17.5099L22.7466 12.1392L22.8699 12.2091L29.3933 15.828C31.2549 16.855 31.2549 18.545 29.3933 19.5785L22.8699 23.1909L22.7399 23.2607Z" fill="url(#paint1_linear_243_2857)"/>
<path d="M22.8708 23.1904L17.2391 17.6996L0.619141 33.9057C1.23747 34.5394 2.24581 34.6158 3.39247 33.9821L22.8708 23.1904Z" fill="url(#paint2_linear_243_2857)"/>
<path d="M22.8708 12.2083L3.39247 1.41672C2.24581 0.789474 1.23747 0.865847 0.619141 1.4996L17.2391 17.6992L22.8708 12.2083Z" fill="url(#paint3_linear_243_2857)"/>
<path d="M49.9285 5.01542C49.9285 6.10092 49.5951 6.9703 48.9385 7.61867C48.1835 8.3873 47.2001 8.77404 45.9951 8.77404C44.8435 8.77404 43.8601 8.38079 43.0535 7.60567C42.2451 6.81917 41.8418 5.85392 41.8418 4.69855C41.8418 3.54317 42.2451 2.57792 43.0535 1.79792C43.8601 1.0163 44.8435 0.623047 45.9951 0.623047C46.5685 0.623047 47.1151 0.738422 47.6368 0.952922C48.1568 1.16905 48.5801 1.46155 48.8868 1.8223L48.1901 2.50805C47.6551 1.89217 46.9268 1.5883 45.9951 1.5883C45.1551 1.5883 44.4268 1.8743 43.8085 2.45117C43.1968 3.02967 42.8901 3.7788 42.8901 4.69855C42.8901 5.6183 43.1968 6.37392 43.8085 6.95242C44.4268 7.52279 45.1551 7.81529 45.9951 7.81529C46.8868 7.81529 47.6368 7.52279 48.2285 6.94592C48.6185 6.56405 48.8401 6.03755 48.8985 5.3648H45.9951V4.42555H49.8685C49.9151 4.62867 49.9285 4.8253 49.9285 5.01542Z" fill="#5657F7" stroke="#5657F7" stroke-width="0.16" stroke-miterlimit="10"/>
<path d="M56.0726 1.75888H52.4343V4.22888H55.7143V5.16813H52.4343V7.63813H56.0726V8.59526H51.4043V0.801758H56.0726V1.75888Z" fill="#5657F7" stroke="#5657F7" stroke-width="0.16" stroke-miterlimit="10"/>
<path d="M60.4101 8.59526H59.3801V1.75888H57.1484V0.801758H62.6434V1.75888H60.4101V8.59526Z" fill="#5657F7" stroke="#5657F7" stroke-width="0.16" stroke-miterlimit="10"/>
<path d="M66.6211 8.59526V0.801758H67.6494V8.59526H66.6211Z" fill="#5657F7" stroke="#5657F7" stroke-width="0.16" stroke-miterlimit="10"/>
<path d="M72.207 8.59526H71.1853V1.75888H68.9453V0.801758H74.447V1.75888H72.207V8.59526Z" fill="#5657F7" stroke="#5657F7" stroke-width="0.16" stroke-miterlimit="10"/>
<path d="M84.8497 7.59267C84.0614 8.3808 83.0847 8.77404 81.9197 8.77404C80.748 8.77404 79.7714 8.3808 78.983 7.59267C78.1964 6.80617 77.8047 5.84092 77.8047 4.69855C77.8047 3.55617 78.1964 2.59092 78.983 1.80442C79.7714 1.0163 80.748 0.623047 81.9197 0.623047C83.078 0.623047 84.0547 1.0163 84.843 1.81092C85.6364 2.60392 86.028 3.56267 86.028 4.69855C86.028 5.84092 85.6364 6.80617 84.8497 7.59267ZM79.7447 6.93942C80.338 7.5228 81.0597 7.81529 81.9197 7.81529C82.773 7.81529 83.5014 7.5228 84.088 6.93942C84.6797 6.35605 84.9797 5.60692 84.9797 4.69855C84.9797 3.79017 84.6797 3.04105 84.088 2.45767C83.5014 1.8743 82.773 1.5818 81.9197 1.5818C81.0597 1.5818 80.338 1.8743 79.7447 2.45767C79.153 3.04105 78.853 3.79017 78.853 4.69855C78.853 5.60692 79.153 6.35605 79.7447 6.93942Z" fill="#5657F7" stroke="#5657F7" stroke-width="0.16" stroke-miterlimit="10"/>
<path d="M87.4727 8.59526V0.801758H88.7227L92.6093 6.86301H92.6543L92.6093 5.36476V0.801758H93.6377V8.59526H92.5643L88.4943 2.23501H88.4493L88.4943 3.73976V8.59526H87.4727Z" fill="#5657F7" stroke="#5657F7" stroke-width="0.16" stroke-miterlimit="10"/>
<path d="M77.5505 19.9775C74.4188 19.9775 71.8605 22.3013 71.8605 25.5074C71.8605 28.6875 74.4188 31.0356 77.5505 31.0356C80.6888 31.0356 83.2471 28.6875 83.2471 25.5074C83.2471 22.3013 80.6888 19.9775 77.5505 19.9775ZM77.5505 28.8581C75.8321 28.8581 74.3538 27.4753 74.3538 25.5074C74.3538 23.5135 75.8321 22.155 77.5505 22.155C79.2688 22.155 80.7538 23.5135 80.7538 25.5074C80.7538 27.4753 79.2688 28.8581 77.5505 28.8581ZM65.1355 19.9775C61.9971 19.9775 59.4455 22.3013 59.4455 25.5074C59.4455 28.6875 61.9971 31.0356 65.1355 31.0356C68.2721 31.0356 70.8255 28.6875 70.8255 25.5074C70.8255 22.3013 68.2721 19.9775 65.1355 19.9775ZM65.1355 28.8581C63.4155 28.8581 61.9322 27.4753 61.9322 25.5074C61.9322 23.5135 63.4155 22.155 65.1355 22.155C66.8538 22.155 68.3322 23.5135 68.3322 25.5074C68.3322 27.4753 66.8538 28.8581 65.1355 28.8581ZM50.3622 21.6724V24.0221H56.1172C55.9488 25.3351 55.4988 26.3004 54.8088 26.9731C53.9688 27.7856 52.6605 28.6875 50.3622 28.6875C46.8205 28.6875 44.0472 25.9006 44.0472 22.4475C44.0472 18.9944 46.8205 16.2075 50.3622 16.2075C52.2772 16.2075 53.6705 16.9371 54.6988 17.8829L56.3972 16.227C54.9588 14.888 53.0455 13.8594 50.3622 13.8594C45.5055 13.8594 41.4238 17.7123 41.4238 22.4475C41.4238 27.1828 45.5055 31.0356 50.3622 31.0356C52.9872 31.0356 54.9588 30.1971 56.5088 28.6241C58.0972 27.0755 58.5922 24.898 58.5922 23.1398C58.5922 22.5938 58.5455 22.0916 58.4622 21.6724H50.3622ZM110.772 23.494C110.304 22.2574 108.859 19.9775 105.915 19.9775C102.999 19.9775 100.57 22.2184 100.57 25.5074C100.57 28.6046 102.974 31.0356 106.195 31.0356C108.8 31.0356 110.304 29.487 110.922 28.5851L108.989 27.329C108.344 28.2488 107.465 28.8581 106.195 28.8581C104.934 28.8581 104.029 28.2943 103.449 27.1828L111.034 24.1229L110.772 23.494ZM103.039 25.3351C102.974 23.2031 104.737 22.1111 106 22.1111C106.99 22.1111 107.83 22.5938 108.11 23.2844L103.039 25.3351ZM96.8738 30.6993H99.3671V14.4493H96.8738V30.6993ZM92.7905 21.2093H92.7071C92.1471 20.5625 91.0788 19.9775 89.7255 19.9775C86.8855 19.9775 84.2888 22.4085 84.2888 25.5253C84.2888 28.6241 86.8855 31.0356 89.7255 31.0356C91.0788 31.0356 92.1471 30.4458 92.7071 29.7795H92.7905V30.5725C92.7905 32.6866 91.6321 33.8225 89.7638 33.8225C88.2405 33.8225 87.2955 32.75 86.9055 31.8481L84.7371 32.7305C85.3621 34.1963 87.0171 36 89.7638 36C92.6871 36 95.1538 34.323 95.1538 30.2426V20.3139H92.7905V21.2093ZM89.9388 28.8581C88.2205 28.8581 86.7821 27.4558 86.7821 25.5253C86.7821 23.5769 88.2205 22.155 89.9388 22.155C91.6321 22.155 92.9671 23.5769 92.9671 25.5253C92.9671 27.4558 91.6321 28.8581 89.9388 28.8581ZM122.445 14.4493H116.482V30.6993H118.969V24.5421H122.445C125.207 24.5421 127.915 22.5938 127.915 19.4949C127.915 16.3976 125.2 14.4493 122.445 14.4493ZM122.51 22.2818H118.969V16.7096H122.51C124.367 16.7096 125.427 18.2128 125.427 19.4949C125.427 20.7526 124.367 22.2818 122.51 22.2818ZM137.882 19.9466C136.085 19.9466 134.217 20.7201 133.449 22.4345L135.655 23.3364C136.13 22.4345 137.004 22.142 137.927 22.142C139.217 22.142 140.525 22.8976 140.545 24.2318V24.4024C140.095 24.1489 139.132 23.7735 137.947 23.7735C135.57 23.7735 133.149 25.0491 133.149 27.4298C133.149 29.6073 135.095 31.0096 137.284 31.0096C138.957 31.0096 139.88 30.2735 140.46 29.4171H140.545V30.6732H142.947V24.4398C142.947 21.5586 140.74 19.9466 137.882 19.9466ZM137.582 28.8516C136.769 28.8516 135.635 28.4584 135.635 27.4753C135.635 26.2175 137.049 25.7349 138.272 25.7349C139.367 25.7349 139.88 25.9705 140.545 26.2809C140.35 27.7856 139.022 28.8516 137.582 28.8516ZM151.697 20.3025L148.839 27.3469H148.754L145.799 20.3025H143.117L147.557 30.1468L145.024 35.6246H147.622L154.464 20.3025H151.697ZM129.282 30.6993H131.775V14.4493H129.282V30.6993Z" fill="#5657F7"/>
<defs>
<linearGradient id="paint0_linear_243_2857" x1="15.7713" y1="32.3767" x2="-6.03887" y2="10.0073" gradientUnits="userSpaceOnUse">
<stop stop-color="#00A0FF"/>
<stop offset="0.0066" stop-color="#00A1FF"/>
<stop offset="0.2601" stop-color="#00BEFF"/>
<stop offset="0.5122" stop-color="#00D2FF"/>
<stop offset="0.7604" stop-color="#00DFFF"/>
<stop offset="1" stop-color="#00E3FF"/>
</linearGradient>
<linearGradient id="paint1_linear_243_2857" x1="31.8175" y1="17.6982" x2="-0.445048" y2="17.6982" gradientUnits="userSpaceOnUse">
<stop stop-color="#FFE000"/>
<stop offset="0.4087" stop-color="#FFBD00"/>
<stop offset="0.7754" stop-color="#FFA500"/>
<stop offset="1" stop-color="#FF9C00"/>
</linearGradient>
<linearGradient id="paint2_linear_243_2857" x1="19.8085" y1="14.7146" x2="-9.76784" y2="-15.62" gradientUnits="userSpaceOnUse">
<stop stop-color="#FF3A44"/>
<stop offset="1" stop-color="#C31162"/>
</linearGradient>
<linearGradient id="paint3_linear_243_2857" x1="-3.56446" y1="43.4702" x2="9.64269" y2="29.9245" gradientUnits="userSpaceOnUse">
<stop stop-color="#32A071"/>
<stop offset="0.0685" stop-color="#2DA771"/>
<stop offset="0.4762" stop-color="#15CF74"/>
<stop offset="0.8009" stop-color="#06E775"/>
<stop offset="1" stop-color="#00F076"/>
</linearGradient>
</defs>
</svg>
