<svg width="190" height="36" viewBox="0 0 190 36" fill="none" xmlns="http://www.w3.org/2000/svg">
<path d="M52 29.9999V7.5999H61.792C64.224 7.5999 66.3573 8.06923 68.192 9.0079C70.0267 9.94656 71.456 11.2479 72.48 12.9119C73.504 14.5759 74.016 16.5386 74.016 18.7999C74.016 21.0399 73.504 23.0026 72.48 24.6879C71.456 26.3519 70.0267 27.6532 68.192 28.5919C66.3573 29.5306 64.224 29.9999 61.792 29.9999H52ZM56.16 26.4799H61.6C63.2853 26.4799 64.736 26.1599 65.952 25.5199C67.1893 24.8799 68.1387 23.9839 68.8 22.8319C69.4827 21.6799 69.824 20.3359 69.824 18.7999C69.824 17.2426 69.4827 15.8986 68.8 14.7679C68.1387 13.6159 67.1893 12.7199 65.952 12.0799C64.736 11.4399 63.2853 11.1199 61.6 11.1199H56.16V26.4799Z" fill="white"/>
<path d="M85.3779 30.2239C83.6286 30.2239 82.0713 29.8506 80.7059 29.1039C79.3406 28.3359 78.2633 27.2906 77.4739 25.9679C76.6846 24.6452 76.2899 23.1412 76.2899 21.4559C76.2899 19.7492 76.6846 18.2452 77.4739 16.9439C78.2633 15.6212 79.3406 14.5866 80.7059 13.8399C82.0713 13.0932 83.6286 12.7199 85.3779 12.7199C87.1486 12.7199 88.7166 13.0932 90.0819 13.8399C91.4686 14.5866 92.5459 15.6106 93.3139 16.9119C94.1033 18.2132 94.4979 19.7279 94.4979 21.4559C94.4979 23.1412 94.1033 24.6452 93.3139 25.9679C92.5459 27.2906 91.4686 28.3359 90.0819 29.1039C88.7166 29.8506 87.1486 30.2239 85.3779 30.2239ZM85.3779 26.7999C86.3593 26.7999 87.2339 26.5866 88.0019 26.1599C88.7699 25.7332 89.3673 25.1146 89.7939 24.3039C90.2419 23.4932 90.4659 22.5439 90.4659 21.4559C90.4659 20.3466 90.2419 19.3972 89.7939 18.6079C89.3673 17.7972 88.7699 17.1786 88.0019 16.7519C87.2339 16.3252 86.3699 16.1119 85.4099 16.1119C84.4286 16.1119 83.5539 16.3252 82.7859 16.7519C82.0393 17.1786 81.4419 17.7972 80.9939 18.6079C80.5459 19.3972 80.3219 20.3466 80.3219 21.4559C80.3219 22.5439 80.5459 23.4932 80.9939 24.3039C81.4419 25.1146 82.0393 25.7332 82.7859 26.1599C83.5539 26.5866 84.4179 26.7999 85.3779 26.7999Z" fill="white"/>
<path d="M97.9674 29.9999V12.9119H101.775V17.6159L101.327 16.2399C101.839 15.0879 102.639 14.2132 103.727 13.6159C104.837 13.0186 106.213 12.7199 107.855 12.7199V16.5279C107.685 16.4852 107.525 16.4639 107.375 16.4639C107.226 16.4426 107.077 16.4319 106.927 16.4319C105.413 16.4319 104.207 16.8799 103.311 17.7759C102.415 18.6506 101.967 19.9626 101.967 21.7119V29.9999H97.9674Z" fill="white"/>
<path d="M132.461 12.7199C133.826 12.7199 135.032 12.9866 136.077 13.5199C137.144 14.0532 137.976 14.8746 138.573 15.9839C139.17 17.0719 139.469 18.4799 139.469 20.2079V29.9999H135.469V20.7199C135.469 19.2052 135.138 18.0746 134.477 17.3279C133.816 16.5812 132.866 16.2079 131.629 16.2079C130.754 16.2079 129.976 16.3999 129.293 16.7839C128.632 17.1679 128.109 17.7332 127.725 18.4799C127.362 19.2266 127.181 20.1759 127.181 21.3279V29.9999H123.181V20.7199C123.181 19.2052 122.85 18.0746 122.189 17.3279C121.528 16.5812 120.578 16.2079 119.341 16.2079C118.466 16.2079 117.688 16.3999 117.005 16.7839C116.344 17.1679 115.821 17.7332 115.437 18.4799C115.074 19.2266 114.893 20.1759 114.893 21.3279V29.9999H110.893V12.9119H114.701V17.4559L114.029 16.1119C114.605 15.0026 115.437 14.1599 116.525 13.5839C117.634 13.0079 118.893 12.7199 120.301 12.7199C121.901 12.7199 123.288 13.1146 124.461 13.9039C125.656 14.6932 126.445 15.8879 126.829 17.4879L125.261 16.9439C125.816 15.6639 126.733 14.6399 128.013 13.8719C129.293 13.1039 130.776 12.7199 132.461 12.7199Z" fill="white"/>
<path d="M144.225 29.9999V12.9119H148.225V29.9999H144.225ZM146.241 10.0959C145.494 10.0959 144.876 9.86123 144.385 9.3919C143.916 8.92256 143.681 8.35723 143.681 7.6959C143.681 7.01323 143.916 6.4479 144.385 5.9999C144.876 5.53056 145.494 5.2959 146.241 5.2959C146.988 5.2959 147.596 5.5199 148.065 5.9679C148.556 6.39456 148.801 6.93857 148.801 7.5999C148.801 8.3039 148.566 8.90123 148.097 9.3919C147.628 9.86123 147.009 10.0959 146.241 10.0959Z" fill="white"/>
<path d="M162.815 12.7199C164.181 12.7199 165.397 12.9866 166.463 13.5199C167.551 14.0532 168.405 14.8746 169.023 15.9839C169.642 17.0719 169.951 18.4799 169.951 20.2079V29.9999H165.951V20.7199C165.951 19.2052 165.589 18.0746 164.863 17.3279C164.159 16.5812 163.167 16.2079 161.887 16.2079C160.949 16.2079 160.117 16.3999 159.391 16.7839C158.666 17.1679 158.101 17.7439 157.695 18.5119C157.311 19.2586 157.119 20.2079 157.119 21.3599V29.9999H153.119V12.9119H156.927V17.5199L156.255 16.1119C156.853 15.0239 157.717 14.1919 158.847 13.6159C159.999 13.0186 161.322 12.7199 162.815 12.7199Z" fill="white"/>
<path d="M181.102 30.2239C179.225 30.2239 177.774 29.7439 176.75 28.7839C175.726 27.8026 175.214 26.3626 175.214 24.4639V9.1359H179.214V24.3679C179.214 25.1786 179.417 25.8079 179.822 26.2559C180.249 26.7039 180.835 26.9279 181.582 26.9279C182.478 26.9279 183.225 26.6932 183.822 26.2239L184.942 29.0719C184.473 29.4559 183.897 29.7439 183.214 29.9359C182.532 30.1279 181.827 30.2239 181.102 30.2239ZM172.398 16.2399V13.0399H183.79V16.2399H172.398Z" fill="white"/>
<path fill-rule="evenodd" clip-rule="evenodd" d="M13.6842 12.1139C13.6842 19.8398 19.9473 26.1028 27.6731 26.1028C30.5456 26.1028 33.2155 25.2365 35.4368 23.7516C33.1157 30.8623 26.4301 36 18.5444 36C8.73245 36 0.77832 28.0459 0.77832 18.2339C0.77832 8.42191 8.73245 0.467773 18.5444 0.467773C18.9836 0.467773 19.419 0.483954 19.8501 0.515305C16.13 3.02933 13.6842 7.28606 13.6842 12.1139ZM35.2487 0.765849L32.4814 5.4111H35.5716V6.89351H29.8728L32.6401 2.24826H30.1855V0.765849H35.2487ZM25.9872 4.29297H18.7796V6.62675H21.8804L18.5186 12.2701H25.9106V9.93627H22.6253L25.9872 4.29297ZM33.9895 14.75L31.8616 18.3218H34.0739V20.6556H27.7549L29.8827 17.0838H27.9672V14.75H33.9895Z" fill="url(#paint0_linear_188_4261)"/>
<defs>
<linearGradient id="paint0_linear_188_4261" x1="1.7448" y1="4.64803" x2="33.2894" y2="6.39948" gradientUnits="userSpaceOnUse">
<stop stop-color="#6B7AFF"/>
<stop offset="1" stop-color="#4940F2"/>
</linearGradient>
</defs>
</svg>
