<svg width="61" height="69" viewBox="0 0 61 69" fill="none" xmlns="http://www.w3.org/2000/svg">
<path d="M23.8663 27.1997C23.8189 26.9157 23.5739 26.8402 23.3947 26.6875C20.4876 24.3366 17.8695 21.6929 15.9985 18.3122C14.1529 14.9729 13.2554 11.4144 14.1393 7.56285C15.0233 3.71133 17.0532 0.947154 20.9085 0.0970517C20.9389 0.0970517 20.9575 0.0323506 20.9811 0H23.5164C26.2038 0.330695 28.33 1.74154 30.0624 3.88747C30.3498 4.24692 30.5695 4.1894 30.8433 3.88747C31.2422 3.45612 31.6242 3.00501 32.0535 2.60962C33.507 1.26527 35.1093 0.242629 37.0935 0.0934571C37.6445 0.424152 38.2631 0.598486 38.8057 0.959735C41.3409 2.64736 42.6745 5.17789 43.168 8.21885C43.8086 12.1728 42.7759 15.7673 40.7561 19.0887C38.6569 22.5322 35.8344 25.2101 32.7295 27.5861C31.6478 28.4128 30.5137 29.1479 29.3813 29.8884C28.9959 30.14 28.6545 30.1759 28.2641 29.9189C27.1165 29.1587 25.8979 28.5296 24.6928 27.8862C24.3801 27.7245 24.0589 27.5358 23.8663 27.1997Z" fill="#FEC636"/>
<path d="M23.8664 27.1997C25.2743 28.0983 26.8124 28.7327 28.1899 29.6853C28.5904 29.9621 28.9099 30.0268 29.373 29.7212C31.5415 28.2996 33.6373 26.7827 35.5658 25.0034C37.7427 22.9941 39.6847 20.7817 41.1433 18.1181C42.6763 15.3126 43.4572 12.295 43.1428 9.05637C42.8927 6.4827 41.9783 4.16065 40.2002 2.31666C39.5164 1.58346 38.6984 1.00724 37.7968 0.623648C37.5483 0.521204 37.1968 0.524799 37.0852 0.158158C37.1241 0.0269587 37.2779 0.0970518 37.3371 0H39.8723C41.0774 0.309128 42.2487 0.702727 43.2527 1.51509C45.3654 3.2117 46.5265 5.51758 46.9525 8.24222C47.6775 12.8648 46.1682 16.8313 43.6144 20.4492C41.9158 22.8539 39.8453 24.8596 37.6007 26.6713C37.5071 26.7552 37.419 26.8459 37.3371 26.9427C37.3508 26.9537 37.3616 26.9682 37.3687 26.9848C37.3758 27.0015 37.3789 27.0197 37.3776 27.0379C37.3776 27.0757 37.3658 27.0936 37.3574 27.0936C37.1746 27.1621 37.0119 27.2805 36.8858 27.4369C35.4103 28.3481 33.857 29.1048 32.395 30.0393C31.9606 30.3161 31.5499 30.6306 31.1003 30.8769C30.6508 31.1231 30.5155 31.47 30.5325 31.9732C30.5933 33.828 30.4243 35.6881 30.6423 37.5447C30.6553 37.7013 30.6444 37.8591 30.6102 38.012C30.4412 39.5019 30.3144 40.9936 30.0812 42.4746C29.6707 44.9495 28.9953 47.3663 28.0682 49.678C28.0449 49.7761 28.0002 49.8669 27.9376 49.9431C27.8751 50.0193 27.7964 50.0788 27.7082 50.1165C27.3144 50.5604 27.1301 51.1409 26.8327 51.6478C24.9667 54.8541 22.4788 57.1905 18.9683 58.1323C17.6719 58.4791 16.357 58.6175 15.0285 58.3228C14.8865 58.2455 14.8409 58.143 14.9744 58.0172C15.113 57.9132 15.2709 57.8421 15.4375 57.8088C18.9869 56.6765 21.414 54.137 23.1515 50.7707C24.7893 47.5967 25.5955 44.1478 26.0248 40.5803C26.3628 37.8143 26.4152 35.0393 26.4118 32.2572C26.4118 31.5113 26.1667 31.0817 25.5667 30.6971C22.3808 28.6447 19.0917 26.8312 15.5271 25.6325C14.1983 25.1931 12.8431 24.8496 11.4707 24.6044C11.2476 24.5649 10.94 24.635 10.8572 24.2737C13.3198 23.9143 15.7097 24.3906 18.0827 25.0016C20.0787 25.5156 21.97 26.3657 23.8664 27.1997Z" fill="#F9A90A"/>
<path d="M27.7112 50.1127C28.7727 47.4599 29.611 44.7389 29.9913 41.8705C30.1603 40.6609 30.3395 39.455 30.3783 38.2292C30.3783 38.1519 30.451 38.0765 30.4916 38.001C30.7671 38.3173 30.6775 38.7199 30.7164 39.0919C30.9197 41.0975 31.2364 43.0883 31.6646 45.0534C31.7014 45.2054 31.719 45.3619 31.717 45.5189C31.5479 45.9197 31.575 46.351 31.5226 46.777C31.2623 53.9876 30.5795 61.1424 29.1327 68.2039C29.0679 68.4818 28.969 68.7495 28.8386 69H22.2469C21.9765 68.6406 22.0103 68.3189 22.203 67.9073C24.8075 62.3664 26.4622 56.4858 27.6859 50.4542C27.7032 50.3413 27.7117 50.2271 27.7112 50.1127Z" fill="#F9A90A"/>
<path d="M31.6328 45.555C30.9937 43.0909 30.6111 40.5595 30.4919 38.0065C30.2722 35.9738 30.421 33.9339 30.3534 31.8958C30.3331 31.3135 30.5494 30.9972 30.9872 30.7276C32.8464 29.5414 34.7258 28.4092 36.6814 27.4189C36.7724 27.3622 36.8579 27.2959 36.9366 27.2212C37.0684 27.1906 37.1935 27.1295 37.327 27.108L37.3405 26.9462C37.6515 27.0019 37.9084 26.8366 38.1856 26.7162C40.8713 25.5174 43.6381 24.6367 46.5435 24.2881C46.6466 24.2755 46.7514 24.2881 46.8562 24.2881C50.1385 24.5001 52.8242 26.0476 54.9166 28.6554C58.2767 32.8448 57.9369 38.2132 53.8247 41.8922C52.4652 43.0829 50.8509 43.8995 49.1244 44.27C48.3554 44.4497 48.3165 44.5 48.5497 45.307C49.3137 47.9507 49.3255 50.5622 48.3063 53.1412C47.3159 55.6394 45.668 57.3827 43.1986 58.1861C43.0944 58.2066 42.9974 58.257 42.9181 58.3317C40.1699 57.8734 37.8797 56.4967 35.9884 54.358C33.8791 51.9676 32.5962 49.0938 31.7528 45.972C31.6969 45.9223 31.6558 45.8565 31.6345 45.7825C31.6132 45.7084 31.6126 45.6294 31.6328 45.555Z" fill="#FEC636"/>
<path d="M42.9113 58.3226C42.7862 58.0782 42.9755 58.0836 43.109 58.0387C46.5739 56.8525 48.2573 54.0847 48.8319 50.4776C49.1113 48.6387 48.9216 46.7537 48.2826 45.0193C48.0663 44.4173 48.2573 44.2735 48.7491 44.1692C50.0553 43.9149 51.3093 43.4185 52.454 42.7027C54.8337 41.1534 56.5104 38.9859 56.9414 36.0402C57.3555 33.2653 56.4749 30.7743 54.7306 28.6715C52.6669 26.1769 50.0353 24.8092 46.9559 24.3581C46.9187 24.3581 46.8866 24.3096 46.8527 24.2826C51.1678 23.8225 55.0737 24.7822 58.2394 28.1233C59.8789 29.8523 60.8693 31.9641 60.9893 34.4407C61.1161 37.0341 60.1088 39.1818 58.4422 41.0115C56.8822 42.726 54.9554 43.7073 52.7802 44.1836C52.094 44.331 52.0568 44.3867 52.2866 45.1092C53.3684 48.515 53.1571 51.8112 51.2286 54.7982C49.2291 57.8841 46.3119 58.8223 42.9113 58.3226Z" fill="#FEC636"/>
<path d="M31.6332 45.5549C31.684 45.6879 31.7925 45.8012 31.7501 45.9629C31.4908 46.175 31.7298 46.5398 31.5298 46.7699C31.5077 46.3601 31.406 45.9413 31.6332 45.5549Z" fill="#9CCA9F"/>
<path d="M10.8536 24.2739C12.1145 24.5902 13.3889 24.7915 14.6463 25.1726C16.3865 25.7033 18.087 26.3714 19.7338 27.1711C21.8725 28.2265 23.9495 29.4179 25.9536 30.7387C26.3677 31.0047 26.5857 31.3246 26.5739 31.8763C26.5435 33.3339 26.6246 34.7969 26.5519 36.2526C26.3491 40.2965 25.8911 44.3043 24.5119 48.1145C23.6364 50.5354 22.4448 52.7874 20.7191 54.635C19.2199 56.2889 17.3239 57.4754 15.2362 58.0659C15.0942 58.1055 14.9134 58.0659 15.0283 58.3247C11.7088 57.8287 9.12963 55.1544 8.31835 51.3694C7.88806 49.3458 7.99634 47.2348 8.63103 45.2731C8.92512 44.3241 8.93188 44.3187 7.99215 44.1067C5.48732 43.5405 3.38474 42.2734 1.81796 40.0898C-0.42659 36.9715 -0.61758 33.2997 1.38358 29.9982C3.58756 26.3533 6.87326 24.6424 10.8536 24.2739Z" fill="#FEC636"/>
<path d="M31.5074 15.3792C31.5074 17.1764 31.5074 18.9737 31.5074 20.7709C31.5074 21.5977 31.1998 22.0092 30.5812 22.029C29.9626 22.0488 29.6094 21.6066 29.6077 20.7547C29.6077 17.1836 29.6077 13.6125 29.6077 10.0431C29.6077 9.45001 29.7547 8.95037 30.3294 8.78502C30.9699 8.59451 31.5125 9.10313 31.5125 9.86337C31.5108 11.6966 31.5074 13.5388 31.5074 15.3792Z" fill="#F9A90A"/>
<path d="M37.3267 27.1043C37.2185 27.2245 37.1053 27.3286 36.9363 27.2174C37.0191 26.9966 37.1526 26.9733 37.3267 27.1043Z" fill="#B2DBB4"/>
<path d="M49.883 42.1241C49.8932 42.9616 49.1968 43.4702 48.5478 43.0748C46.5585 41.8599 44.5911 40.6072 42.617 39.3617C41.2051 38.4714 39.7966 37.5728 38.3916 36.6658C38.0856 36.4681 37.773 36.2542 37.7155 35.8283C37.6816 35.6386 37.7018 35.4424 37.7734 35.265C37.8451 35.0876 37.965 34.937 38.1177 34.8326C38.2871 34.7173 38.4848 34.6581 38.6859 34.6626C38.8869 34.6671 39.0821 34.735 39.2468 34.8577C40.0761 35.3873 40.9071 35.9145 41.7398 36.4393L49.0734 41.0781C49.474 41.3297 49.9185 41.5543 49.883 42.1241Z" fill="#F9A90A"/>
<path d="M11.2268 42.2231C11.2337 42.0614 11.2811 41.9045 11.364 41.7687C11.4469 41.6328 11.5623 41.523 11.6984 41.4503C15.0111 39.3637 18.3137 37.2609 21.6281 35.1779C21.9087 34.9982 22.1876 34.7358 22.5526 34.8041C22.7431 34.8254 22.9231 34.9075 23.0688 35.0397C23.2145 35.1719 23.3192 35.3479 23.369 35.5445C23.5059 36.0639 23.2743 36.4324 22.8991 36.6858C22.0659 37.2519 21.209 37.7875 20.3639 38.3285C18.0348 39.8118 15.7052 41.2915 13.375 42.7677C13.1014 42.9389 12.8193 43.0943 12.5299 43.2332C11.8894 43.5531 11.2386 43.0966 11.2268 42.2231Z" fill="#F9A90A"/>
</svg>
