<svg width="101" height="100" viewBox="0 0 101 100" fill="none" xmlns="http://www.w3.org/2000/svg">
<path fill-rule="evenodd" clip-rule="evenodd" d="M97.7186 89.6253L97.7519 89.6215C96.4909 87.2793 96.9635 84.9417 97.4363 82.6028C97.5213 82.1826 97.6063 81.7623 97.6812 81.342C97.937 80.9766 98.0765 80.5321 98.0788 80.0746C98.7495 73.9238 98.8729 67.7252 98.9962 61.537C99.0148 60.6035 99.0334 59.6703 99.0539 58.7375C99.2483 49.989 98.9743 41.2438 98.6326 32.4954C98.3999 26.586 98.07 20.6988 97.3365 14.8369C97.2232 13.8943 97.3494 12.9361 97.7018 12.0644C98.5622 9.80944 99.3996 7.54314 100.237 5.27699C100.391 4.85884 100.546 4.44069 100.7 4.02262C101.042 3.10057 101.163 2.20069 100.677 1.29131C100.035 0.0872589 98.83 -0.324654 97.3837 0.267869C95.5183 1.02872 93.6671 1.83543 91.8163 2.64199C91.139 2.93715 90.4618 3.23229 89.7839 3.52516C89.0605 3.89498 88.2563 4.043 87.4597 3.95291C85.3975 3.60942 83.3272 3.40046 81.2555 3.19136C80.8238 3.14778 80.3919 3.10419 79.9601 3.05938C73.6092 2.40665 67.2378 2.24189 60.8752 2.10881C51.234 1.90919 41.5899 2.09613 31.9488 2.5429C30.3391 2.61736 28.7305 2.71553 27.122 2.8137C24.9659 2.94529 22.81 3.07686 20.6522 3.15127C20.1867 3.11576 19.7254 3.26577 19.3561 3.57269C19.0858 3.7418 18.788 3.76057 18.4911 3.77928C18.3319 3.78931 18.173 3.79932 18.0188 3.83251C17.413 3.96422 16.797 3.99159 16.1815 4.01893C15.54 4.04743 14.899 4.07591 14.2705 4.2225C14.1343 4.24257 13.9887 4.28023 13.8328 4.33671C12.684 4.55851 11.6206 4.27968 10.5543 3.79806C8.85273 3.02665 7.13512 2.29491 5.41804 1.56339C4.80765 1.30335 4.19733 1.04333 3.58781 0.781577C1.74972 -0.00739635 1.26369 0.113009 0.00883704 1.65293L0 3.27841C0.319523 4.86027 0.78835 6.40292 1.39919 7.88234C1.68859 8.6386 1.97043 9.39938 2.25234 10.1603L2.25236 10.1604L2.25237 10.1604C2.49842 10.8246 2.74452 11.4889 2.99574 12.1504C3.35678 13.0691 3.4592 14.0816 3.2903 15.0623C1.99992 22.7917 1.85223 30.6192 1.70491 38.4267L1.69081 39.1719C1.50621 48.9945 1.64171 58.8181 2.09731 68.6428L2.13382 69.3867C2.37989 74.4072 2.62549 79.418 3.24023 84.4001C3.44845 85.9616 3.26015 87.5546 2.69528 89.0104C2.47804 89.5872 2.25152 90.1609 2.0249 90.7348L2.02484 90.7349C1.22207 92.7679 0.418023 94.8041 0.0206197 96.9983V98.6175C1.27547 100.161 1.75856 100.278 3.60549 99.4888C4.21967 99.2263 4.83683 98.9713 5.45385 98.7164C6.86986 98.1315 8.2851 97.5469 9.66176 96.8716C11.246 96.0932 13.0109 95.8437 14.7283 96.1555C22.876 97.4071 31.1003 97.6162 39.3128 97.781C50.7341 97.9964 62.1397 97.8053 73.5296 97.2074C77.2912 97.0047 81.0587 96.7765 84.8055 96.2569C85.0656 96.2211 85.3253 96.18 85.5851 96.1389C87.0763 95.903 88.5674 95.6671 90.1077 96.447C91.8141 97.3105 93.5812 98.0388 95.3485 98.7672C96.1623 99.1026 96.9761 99.438 97.7841 99.7867C98.6325 100.161 99.4366 100.059 100.105 99.3589C100.396 99.0891 100.6 98.7285 100.691 98.3276C100.782 97.9266 100.754 97.5051 100.612 97.1219C100.365 96.4536 100.127 95.7817 99.8894 95.1099L99.8892 95.1093L99.889 95.1088L99.8888 95.1082L99.8886 95.1076L99.8884 95.107L99.8882 95.1065L99.888 95.1059L99.8878 95.1053L99.8876 95.1048L99.8873 95.1042L99.8871 95.1036L99.8869 95.103L99.8867 95.1025L99.8865 95.1019L99.8863 95.1013L99.8861 95.1008L99.8859 95.1002L99.8857 95.0996L99.8855 95.099L99.8853 95.0985C99.2322 93.2547 98.5795 91.4119 97.7517 89.6472C97.7407 89.6398 97.7297 89.6325 97.7186 89.6253Z" fill="white"/>
<path d="M43.1113 61.3116C43.1113 64.2264 46.9139 69.9105 50.1842 69.9105C53.4544 69.9105 57.2494 64.2264 57.2494 61.3116C57.2494 57.9302 52.9981 55.6887 50.1842 55.6887C47.3702 55.6887 43.1113 57.9302 43.1113 61.3116Z" fill="#2D2F54"/>
<path d="M36.0993 44.9861C35.5653 44.9861 35.0433 45.1454 34.5993 45.4438C34.1553 45.7422 33.8093 46.1664 33.6049 46.6626C33.4006 47.1589 33.3471 47.7049 33.4513 48.2317C33.5555 48.7586 33.8126 49.2425 34.1902 49.6223C34.5678 50.0021 35.0488 50.2608 35.5725 50.3656C36.0963 50.4704 36.6391 50.4166 37.1324 50.211C37.6258 50.0055 38.0474 49.6574 38.3441 49.2107C38.6408 48.7641 38.7991 48.2391 38.7991 47.7019C38.7991 46.9816 38.5147 46.2908 38.0083 45.7815C37.502 45.2722 36.8153 44.9861 36.0993 44.9861Z" fill="#2D2F54"/>
<path d="M62.7868 50.4102C63.3211 50.4102 63.8434 50.2507 64.2875 49.9519C64.7317 49.6532 65.0777 49.2286 65.2818 48.7319C65.4859 48.2352 65.539 47.6887 65.4342 47.1617C65.3294 46.6347 65.0715 46.1508 64.6931 45.7713C64.3148 45.3917 63.833 45.1337 63.3088 45.0298C62.7846 44.9258 62.2415 44.9807 61.7483 45.1874C61.2551 45.3942 60.834 45.7435 60.5382 46.1911C60.2425 46.6387 60.0854 47.1645 60.0869 47.702C60.0869 48.0583 60.1568 48.4111 60.2926 48.7401C60.4284 49.0692 60.6273 49.3681 60.8781 49.6197C61.129 49.8713 61.4266 50.0706 61.7542 50.2062C62.0817 50.3419 62.4326 50.4112 62.7868 50.4102Z" fill="#2D2F54"/>
<path d="M46.9751 47.4722C46.9826 45.3494 46.3628 43.2722 45.1944 41.5044C44.026 39.7366 42.3617 38.3579 40.4129 37.5435C38.464 36.729 36.3185 36.5155 34.2488 36.9301C32.1791 37.3446 30.2785 38.3685 28.7884 39.8717C27.2983 41.375 26.2859 43.2897 25.8797 45.3729C25.4736 47.4561 25.692 49.6137 26.5072 51.5717C27.3225 53.5298 28.6978 55.1999 30.4585 56.3702C32.2193 57.5404 34.286 58.1579 36.3963 58.1443C39.2017 58.1262 41.8866 56.995 43.8675 54.9967C45.8484 52.9983 46.9652 50.2943 46.9751 47.4722ZM36.3963 55.0842C34.9013 55.0767 33.442 54.6238 32.2026 53.7828C30.9632 52.9418 29.9993 51.7504 29.4323 50.3588C28.8654 48.9672 28.721 47.438 29.0172 45.9639C29.3135 44.4898 30.0372 43.1371 31.097 42.0764C32.1568 41.0156 33.5051 40.2945 34.972 40.0038C36.4388 39.7132 37.9584 39.8662 39.3389 40.4434C40.7194 41.0207 41.899 41.9963 42.7288 43.2472C43.5586 44.4982 44.0015 45.9684 44.0015 47.4722C43.9914 49.4946 43.1858 51.4306 41.7606 52.857C40.3354 54.2835 38.4068 55.0842 36.3963 55.0842Z" fill="#2D2F54"/>
<path d="M63.0213 58.1444C65.1197 58.1444 67.1708 57.5185 68.9155 56.3459C70.6602 55.1732 72.02 53.5065 72.823 51.5564C73.626 49.6063 73.8361 47.4605 73.4267 45.3903C73.0174 43.3202 72.0069 41.4186 70.5232 39.9261C69.0395 38.4336 67.1491 37.4171 65.0911 37.0054C63.0331 36.5936 60.9 36.8049 58.9614 37.6127C57.0228 38.4204 55.3658 39.7883 54.2001 41.5433C53.0343 43.2983 52.4121 45.3616 52.4121 47.4724C52.4221 50.2997 53.5431 53.0083 55.5306 55.0075C57.518 57.0067 60.2107 58.1344 63.0213 58.1444ZM63.0213 39.8604C64.5271 39.8528 66.0012 40.295 67.2569 41.131C68.5125 41.967 69.4932 43.1592 70.0747 44.5564C70.6561 45.9536 70.8122 47.493 70.523 48.9795C70.2339 50.466 69.5126 51.8327 68.4505 52.9065C67.3884 53.9802 66.0334 54.7126 64.5571 55.0109C63.0808 55.3092 61.5497 55.16 60.1578 54.5821C58.766 54.0042 57.5759 53.0237 56.7386 51.7648C55.9012 50.5059 55.4542 49.0253 55.4542 47.5106C55.4542 45.4883 56.2502 43.5482 57.6682 42.1146C59.0863 40.681 61.0109 39.8705 63.0213 39.8604Z" fill="#2D2F54"/>
<path d="M74.4752 28.2091C76.0418 24.8889 75.0379 20.3752 74.8934 19.7938C74.8015 19.387 74.601 19.0132 74.3137 18.7124C74.0263 18.4117 73.6629 18.1954 73.2625 18.0868C72.8621 17.9782 72.4398 17.9815 72.0411 18.0963C71.6424 18.211 71.2823 18.4329 70.9996 18.7381C69.7244 20.0729 68.3121 21.268 66.7863 22.3031C61.78 19.511 56.1466 18.0543 50.4223 18.0717C44.698 18.0892 39.0735 19.5801 34.084 22.4025C32.515 21.3408 31.0642 20.1122 29.7567 18.7381C29.4765 18.4329 29.1193 18.2099 28.7231 18.0929C28.3268 17.9759 27.9065 17.9693 27.5068 18.0737C27.1071 18.1782 26.7431 18.3898 26.4536 18.6859C26.1641 18.9821 25.9599 19.3518 25.8628 19.7556C25.7107 20.3905 24.6688 25.1107 26.3876 28.4156C20.3763 34.704 17.0138 43.0861 17.0028 51.81C16.9449 56.0807 17.7974 60.3142 19.5029 64.2256C21.2083 68.137 23.727 71.6354 26.8895 74.4853C33.0649 79.9399 41.4534 83 50.534 83C59.6146 83 68.026 79.9399 74.1101 74.4853C77.2757 71.638 79.7966 68.14 81.5023 64.228C83.2079 60.3161 84.0586 56.0813 83.9969 51.81C84.0048 42.9949 80.5879 34.5256 74.4752 28.2091ZM22.8435 53.1641C22.0579 47.9803 23.1597 42.6854 25.9465 38.2538C27.1532 36.2915 28.7689 34.6159 30.6819 33.3427C32.595 32.0694 34.7599 31.2289 37.0272 30.879C39.1119 30.6201 41.2269 30.7839 43.2476 31.3608C45.2683 31.9376 47.1537 32.9157 48.7924 34.2374C49.1914 34.5464 49.6807 34.7139 50.1842 34.7139C50.6877 34.7139 51.177 34.5464 51.5759 34.2374C53.214 32.9146 55.0993 31.9357 57.1202 31.3589C59.1411 30.782 61.2565 30.6188 63.3412 30.879C65.6085 31.2289 67.7734 32.0694 69.6864 33.3427C71.5995 34.6159 73.2151 36.2915 74.4219 38.2538C77.2086 42.6854 78.3105 47.9803 77.5248 53.1641C76.1711 62.9641 68.8321 70.0711 60.0329 70.0711C59.2876 70.0699 58.5432 70.0188 57.8046 69.9181C57.6426 69.906 57.4799 69.906 57.3179 69.9181C56.096 70.0249 54.9072 70.3732 53.8195 70.9432C52.3821 71.5629 50.7774 72.2897 49.4617 72.2897C48.2184 72.1696 47.0267 71.7296 46.0013 71.0121C45.1062 70.3691 44.0553 69.9807 42.9593 69.8875C42.815 69.8759 42.67 69.8759 42.5258 69.8875C41.7872 69.988 41.0428 70.0391 40.2974 70.0405C31.5363 70.0405 24.1973 62.9258 22.8435 53.1641ZM70.6802 25.1796C70.6331 25.7761 70.3926 26.3405 69.9957 26.7861C69.6585 27.0749 69.4148 27.4586 69.296 27.8878C68.7391 27.6124 68.1679 27.3672 67.5849 27.1533C67.753 27.1028 67.914 27.0308 68.064 26.9391C68.5051 26.6867 69.5014 26.0441 70.6802 25.149V25.1796ZM64.7177 26.4648L63.9572 26.3348C59.1189 25.6967 54.2156 26.8583 50.169 29.6014C46.1773 26.8953 41.3486 25.7299 36.5709 26.3195C40.8834 23.9249 45.7335 22.6811 50.6593 22.7066C55.5851 22.732 60.4223 24.0258 64.7101 26.4648H64.7177ZM31.7644 26.3424C31.8206 26.4488 31.8841 26.5511 31.9546 26.6484C32.1296 26.8875 32.3492 27.0902 32.601 27.2451C32.2359 27.3752 31.8405 27.5129 31.5211 27.6659C31.3639 27.3232 31.1264 27.0239 30.829 26.7938C30.3853 26.3535 30.1151 25.7665 30.0685 25.1413C30.7073 25.6233 31.2853 26.0288 31.7644 26.3424ZM32.5782 73.1236C35.0344 74.1296 37.6606 74.6491 40.3127 74.6536C41.1644 74.6537 42.0153 74.6 42.8604 74.4929C43.0886 74.6 43.4536 74.8143 43.735 74.9826C45.4402 76.1202 47.4182 76.7755 49.4617 76.8798C51.7433 76.8798 53.9031 75.9312 55.6219 75.1738C56.18 74.9055 56.7511 74.6655 57.3331 74.4547C58.2411 74.5694 59.1558 74.6231 60.0709 74.6154C63.4152 74.6246 66.7117 73.816 69.6763 72.2591C64.6797 76.1148 58.0708 78.4099 50.534 78.4099C44.149 78.5246 37.8806 76.6807 32.563 73.1236H32.5782Z" fill="#2D2F54"/>
</svg>
